<svg width="300" height="100" viewBox="0 0 300 100" fill="none" xmlns="http://www.w3.org/2000/svg">
<rect width="300" height="100" rx="25" fill="white"/>
<path d="M101.014 76C115.38 76 127.027 64.3594 127.027 50C127.027 35.6406 115.38 24 101.014 24C86.6466 24 75 35.6406 75 50C75 64.3594 86.6466 76 101.014 76Z" fill="#FFB2B2"/>
<path d="M87.9324 55.2487C86.5758 56.0315 84.8801 55.0529 84.8801 53.4873V47.0225C84.8801 45.4569 86.5758 44.4784 87.9324 45.2612L93.534 48.4937C94.8905 49.2765 94.8905 51.2335 93.534 52.0163L87.9324 55.2487Z" fill="white"/>
<path d="M101.534 54.1601C101.534 54.7344 101.068 55.2001 100.493 55.2001C99.9185 55.2001 99.4526 54.7344 99.4526 54.1601V45.8401C99.4526 45.2657 99.9185 44.8001 100.493 44.8001C101.068 44.8001 101.534 45.2657 101.534 45.8401V54.1601Z" fill="#FFFDFD"/>
<path d="M105.176 57.28C105.176 57.8544 104.71 58.32 104.135 58.32C103.56 58.32 103.094 57.8544 103.094 57.28V42.7199C103.094 42.1455 103.56 41.6799 104.135 41.6799C104.71 41.6799 105.176 42.1455 105.176 42.7199V57.28Z" fill="#FFFDFD"/>
<path d="M108.818 53.12C108.818 53.6943 108.352 54.16 107.777 54.16C107.202 54.16 106.736 53.6943 106.736 53.12V46.88C106.736 46.3056 107.202 45.84 107.777 45.84C108.352 45.84 108.818 46.3056 108.818 46.88V53.12Z" fill="#FFFDFD"/>
<path d="M112.459 55.7199C112.459 56.2943 111.994 56.7599 111.419 56.7599C110.844 56.7599 110.378 56.2943 110.378 55.7199V43.2399C110.378 42.6656 110.844 42.1999 111.419 42.1999C111.994 42.1999 112.459 42.6656 112.459 43.2399V55.7199Z" fill="#FFFDFD"/>
<path d="M116.101 40.64C116.101 40.0656 115.635 39.6 115.061 39.6C114.486 39.6 114.02 40.0656 114.02 40.64V59.3599C114.02 59.9343 114.486 60.3999 115.061 60.3999C115.635 60.3999 116.101 59.9343 116.101 59.3599V40.64Z" fill="#FFFDFD"/>
<path d="M93.8306 61.9557C93.7969 61.9557 93.7718 61.9476 93.755 61.9316C93.7382 61.9155 93.7297 61.8928 93.7297 61.8635V60.9486C93.7297 60.9194 93.7382 60.8974 93.755 60.8827C93.7718 60.8667 93.7961 60.8586 93.828 60.8586C93.86 60.8586 93.8843 60.8667 93.9011 60.8827C93.9196 60.8974 93.9288 60.9194 93.9288 60.9486V61.1416L93.9011 61.1109C93.933 61.0291 93.9843 60.9661 94.0548 60.9223C94.127 60.8769 94.2127 60.8543 94.3118 60.8543C94.416 60.8543 94.5 60.8762 94.5638 60.9201C94.6293 60.9625 94.673 61.0291 94.6949 61.1198H94.657C94.6873 61.0378 94.7411 60.9735 94.8184 60.9267C94.8973 60.8784 94.9888 60.8543 95.093 60.8543C95.1854 60.8543 95.2609 60.8696 95.3198 60.9003C95.3803 60.931 95.4257 60.9778 95.4559 61.0408C95.4861 61.1022 95.5013 61.1805 95.5013 61.2756V61.8635C95.5013 61.8928 95.492 61.9155 95.4735 61.9316C95.4567 61.9476 95.4315 61.9557 95.3979 61.9557C95.3659 61.9557 95.3408 61.9476 95.3223 61.9316C95.3055 61.9155 95.2971 61.8928 95.2971 61.8635V61.2843C95.2971 61.1863 95.2778 61.1146 95.2392 61.0692C95.2005 61.0225 95.135 60.9991 95.0426 60.9991C94.9418 60.9991 94.862 61.0298 94.8032 61.0912C94.7461 61.1512 94.7175 61.2331 94.7175 61.337V61.8635C94.7175 61.8928 94.7083 61.9155 94.6898 61.9316C94.673 61.9476 94.6479 61.9557 94.6142 61.9557C94.5823 61.9557 94.5571 61.9476 94.5386 61.9316C94.5218 61.9155 94.5135 61.8928 94.5135 61.8635V61.2843C94.5135 61.1863 94.4933 61.1146 94.4529 61.0692C94.4144 61.0225 94.3496 60.9991 94.2589 60.9991C94.1581 60.9991 94.0783 61.0298 94.0195 61.0912C93.9624 61.1512 93.9338 61.2331 93.9338 61.337V61.8635C93.9338 61.925 93.8994 61.9557 93.8306 61.9557ZM96.6943 61.96C96.5951 61.96 96.5128 61.9447 96.4473 61.914C96.3835 61.8818 96.3347 61.8342 96.3012 61.7714C96.2692 61.7085 96.2532 61.6303 96.2532 61.5366V60.9486C96.2532 60.9179 96.2617 60.8952 96.2785 60.8806C96.297 60.866 96.3221 60.8586 96.3541 60.8586C96.3876 60.8586 96.4129 60.866 96.4297 60.8806C96.4482 60.8952 96.4574 60.9179 96.4574 60.9486V61.5345C96.4574 61.628 96.4792 61.6983 96.5229 61.7451C96.5682 61.7904 96.6388 61.8131 96.7346 61.8131C96.8388 61.8131 96.9236 61.7824 96.989 61.721C97.0546 61.6594 97.0873 61.579 97.0873 61.4796V60.9486C97.0873 60.9179 97.0958 60.8952 97.1125 60.8806C97.1311 60.866 97.157 60.8586 97.1907 60.8586C97.2225 60.8586 97.2469 60.866 97.2637 60.8806C97.2823 60.8952 97.2915 60.9179 97.2915 60.9486V61.8635C97.2915 61.925 97.2587 61.9557 97.1932 61.9557C97.1613 61.9557 97.136 61.9476 97.1176 61.9316C97.1007 61.9155 97.0924 61.8928 97.0924 61.8635V61.6639L97.1252 61.6946C97.0916 61.7809 97.0361 61.8468 96.9588 61.8921C96.8832 61.9374 96.795 61.96 96.6943 61.96ZM98.4646 61.96C98.389 61.96 98.3126 61.952 98.2353 61.9359C98.1597 61.9199 98.0891 61.8921 98.0235 61.8525C98.0069 61.8423 97.9951 61.8306 97.9883 61.8175C97.9816 61.8028 97.9791 61.7889 97.9807 61.7758C97.9842 61.7611 97.9909 61.7487 98.001 61.7385C98.0127 61.7282 98.0261 61.7224 98.0412 61.721C98.058 61.718 98.0765 61.721 98.0967 61.7297C98.1622 61.7648 98.2252 61.7897 98.2856 61.8042C98.3478 61.8175 98.4091 61.8241 98.4696 61.8241C98.5653 61.8241 98.6377 61.8087 98.6863 61.778C98.735 61.7472 98.7594 61.7056 98.7594 61.6529C98.7594 61.612 98.7435 61.5797 98.7115 61.5563C98.6796 61.5315 98.6292 61.5125 98.5603 61.4993L98.331 61.4555C98.2252 61.4364 98.1462 61.4035 98.0942 61.3567C98.0438 61.3099 98.0186 61.2492 98.0186 61.1746C98.0186 61.1088 98.0379 61.0525 98.0765 61.0057C98.1168 60.9574 98.1731 60.9201 98.2453 60.8937C98.3176 60.8674 98.4016 60.8543 98.4973 60.8543C98.5712 60.8543 98.641 60.863 98.7064 60.8806C98.7737 60.8967 98.8341 60.923 98.8879 60.9595C98.9047 60.9698 98.9156 60.9822 98.9207 60.9968C98.9274 61.0101 98.9282 61.0239 98.9231 61.0385C98.9199 61.0517 98.9123 61.0634 98.9006 61.0736C98.8888 61.0825 98.8745 61.0875 98.8577 61.0891C98.8409 61.0905 98.8232 61.0861 98.8047 61.0758C98.7544 61.0466 98.7032 61.0254 98.6511 61.0122C98.599 60.9975 98.5477 60.9903 98.4973 60.9903C98.4032 60.9903 98.3319 61.0064 98.2832 61.0385C98.2345 61.0708 98.21 61.1132 98.21 61.1658C98.21 61.2067 98.2252 61.2404 98.2554 61.2667C98.2856 61.2931 98.3327 61.3121 98.3965 61.3238L98.6259 61.3655C98.735 61.386 98.8165 61.4188 98.8702 61.4642C98.9257 61.5081 98.9535 61.568 98.9535 61.6441C98.9535 61.7407 98.9089 61.8175 98.8199 61.8745C98.7308 61.9316 98.6124 61.96 98.4646 61.96ZM99.7433 61.9513C99.7097 61.9513 99.6845 61.9433 99.6677 61.9272C99.6509 61.9096 99.6425 61.8855 99.6425 61.8548V60.9574C99.6425 60.9267 99.6509 60.9033 99.6677 60.8871C99.6845 60.871 99.7097 60.863 99.7433 60.863C99.7752 60.863 99.8004 60.871 99.8189 60.8871C99.8374 60.9033 99.8465 60.9267 99.8465 60.9574V61.8548C99.8465 61.8855 99.8374 61.9096 99.8189 61.9272C99.8021 61.9433 99.7769 61.9513 99.7433 61.9513ZM99.7433 60.6173C99.7013 60.6173 99.6685 60.6078 99.645 60.5888C99.6215 60.5683 99.6097 60.5413 99.6097 60.5076C99.6097 60.4724 99.6215 60.4462 99.645 60.4286C99.6685 60.4096 99.7013 60.4 99.7433 60.4C99.7869 60.4 99.8197 60.4096 99.8416 60.4286C99.8651 60.4462 99.8769 60.4724 99.8769 60.5076C99.8769 60.5413 99.8651 60.5683 99.8416 60.5888C99.8197 60.6078 99.7869 60.6173 99.7433 60.6173ZM101.125 61.96C101.003 61.96 100.897 61.9366 100.808 61.8899C100.719 61.8431 100.65 61.778 100.601 61.6946C100.554 61.6097 100.531 61.5118 100.531 61.4005C100.531 61.3157 100.544 61.2397 100.571 61.1724C100.598 61.1051 100.637 61.0481 100.689 61.0012C100.741 60.953 100.804 60.9164 100.876 60.8916C100.95 60.8667 101.033 60.8543 101.125 60.8543C101.186 60.8543 101.249 60.8623 101.314 60.8784C101.38 60.8944 101.439 60.9223 101.493 60.9618C101.51 60.972 101.521 60.9844 101.526 60.9991C101.531 61.0137 101.531 61.0284 101.526 61.0429C101.521 61.0561 101.512 61.0678 101.501 61.0781C101.489 61.0868 101.474 61.0919 101.455 61.0934C101.439 61.0949 101.421 61.0898 101.402 61.0781C101.359 61.0488 101.314 61.0284 101.269 61.0166C101.224 61.0049 101.18 60.9991 101.138 60.9991C101.072 60.9991 101.015 61.0085 100.967 61.0275C100.918 61.0451 100.877 61.0708 100.843 61.1044C100.809 61.138 100.783 61.1797 100.765 61.2294C100.748 61.2791 100.74 61.337 100.74 61.4028C100.74 61.53 100.774 61.631 100.843 61.7056C100.912 61.7787 101.01 61.8152 101.138 61.8152C101.18 61.8152 101.223 61.8094 101.266 61.7977C101.312 61.786 101.357 61.7655 101.402 61.7363C101.421 61.7246 101.439 61.7194 101.455 61.721C101.472 61.7224 101.486 61.7282 101.498 61.7385C101.51 61.7472 101.518 61.759 101.521 61.7735C101.526 61.7882 101.526 61.8028 101.521 61.8175C101.516 61.8306 101.505 61.8423 101.488 61.8525C101.434 61.8906 101.376 61.9183 101.312 61.9359C101.248 61.952 101.186 61.96 101.125 61.96ZM102.635 61.96C102.516 61.96 102.412 61.9374 102.325 61.8921C102.238 61.8468 102.17 61.7831 102.121 61.7011C102.074 61.6177 102.05 61.5198 102.05 61.4072C102.05 61.3223 102.064 61.2463 102.091 61.179C102.118 61.1102 102.157 61.0517 102.209 61.0034C102.261 60.9551 102.322 60.9186 102.393 60.8937C102.465 60.8674 102.546 60.8543 102.635 60.8543C102.754 60.8543 102.858 60.8769 102.945 60.9223C103.032 60.9677 103.099 61.032 103.146 61.1153C103.195 61.1973 103.22 61.2946 103.22 61.4072C103.22 61.492 103.206 61.568 103.179 61.6353C103.152 61.7027 103.113 61.7611 103.061 61.8109C103.009 61.8592 102.947 61.8965 102.874 61.9228C102.804 61.9476 102.724 61.96 102.635 61.96ZM102.635 61.8175C102.711 61.8175 102.777 61.8014 102.834 61.7692C102.891 61.737 102.935 61.6902 102.965 61.6287C102.997 61.5673 103.013 61.4935 103.013 61.4072C103.013 61.274 102.978 61.1724 102.91 61.1022C102.842 61.032 102.751 60.9968 102.635 60.9968C102.558 60.9968 102.491 61.013 102.433 61.0451C102.378 61.0758 102.334 61.1219 102.302 61.1833C102.272 61.2433 102.257 61.318 102.257 61.4072C102.257 61.5388 102.291 61.6404 102.36 61.7121C102.429 61.7824 102.521 61.8175 102.635 61.8175ZM104.007 61.9557C103.974 61.9557 103.948 61.9476 103.929 61.9316C103.913 61.9155 103.904 61.8928 103.904 61.8635V60.9486C103.904 60.9194 103.913 60.8974 103.929 60.8827C103.946 60.8667 103.97 60.8586 104.002 60.8586C104.034 60.8586 104.059 60.8667 104.075 60.8827C104.094 60.8974 104.103 60.9194 104.103 60.9486V61.1263H104.078C104.105 61.0401 104.156 60.9735 104.232 60.9267C104.307 60.8799 104.401 60.855 104.511 60.852C104.537 60.8506 104.557 60.8557 104.572 60.8674C104.587 60.8777 104.595 60.896 104.597 60.9223C104.599 60.9471 104.592 60.9668 104.577 60.9815C104.562 60.9961 104.538 61.0049 104.506 61.0078L104.466 61.0122C104.352 61.021 104.264 61.0532 104.201 61.1088C104.141 61.1629 104.111 61.2375 104.111 61.3325V61.8635C104.111 61.8928 104.101 61.9155 104.083 61.9316C104.066 61.9476 104.041 61.9557 104.007 61.9557ZM105.722 61.96C105.593 61.96 105.481 61.9382 105.387 61.8942C105.295 61.8489 105.223 61.7852 105.17 61.7034C105.12 61.6214 105.095 61.5235 105.095 61.4094C105.095 61.2981 105.12 61.2016 105.17 61.1198C105.221 61.0364 105.29 60.9713 105.377 60.9244C105.466 60.8777 105.569 60.8543 105.684 60.8543C105.767 60.8543 105.841 60.8667 105.906 60.8916C105.972 60.915 106.027 60.9493 106.073 60.9947C106.12 61.0401 106.155 61.0949 106.178 61.1592C106.204 61.2236 106.216 61.296 106.216 61.3764C106.216 61.3998 106.209 61.4174 106.194 61.4291C106.178 61.4394 106.157 61.4445 106.128 61.4445H105.251V61.3281H106.08L106.04 61.3567C106.04 61.2777 106.026 61.2112 105.999 61.157C105.973 61.1015 105.933 61.0591 105.881 61.0298C105.831 61.0005 105.767 60.9859 105.69 60.9859C105.604 60.9859 105.531 61.0034 105.47 61.0385C105.412 61.0722 105.367 61.1198 105.337 61.1812C105.307 61.2411 105.291 61.3114 105.291 61.3918V61.405C105.291 61.5395 105.328 61.642 105.402 61.7121C105.478 61.7824 105.585 61.8175 105.722 61.8175C105.779 61.8175 105.836 61.8109 105.891 61.7977C105.948 61.7845 106.004 61.7627 106.057 61.7318C106.081 61.7187 106.102 61.7128 106.12 61.7144C106.141 61.7144 106.157 61.7194 106.168 61.7297C106.18 61.7385 106.188 61.7501 106.191 61.7648C106.196 61.778 106.194 61.7926 106.186 61.8087C106.179 61.8248 106.165 61.8386 106.143 61.8504C106.088 61.8855 106.022 61.9125 105.947 61.9316C105.871 61.9506 105.796 61.96 105.722 61.96Z" fill="white"/>
<path d="M136.785 50.0989C136.5 50.0989 136.281 50.0175 136.129 49.8548C135.976 49.6921 135.9 49.4684 135.9 49.1837V40.0164C135.9 39.7215 135.981 39.4978 136.144 39.3453C136.307 39.1826 136.531 39.1012 136.815 39.1012C137.07 39.1012 137.268 39.1521 137.411 39.2537C137.563 39.3453 137.701 39.508 137.823 39.7419L141.592 46.7126H141.104L144.873 39.7419C144.995 39.508 145.128 39.3453 145.27 39.2537C145.413 39.1521 145.611 39.1012 145.865 39.1012C146.15 39.1012 146.369 39.1826 146.522 39.3453C146.674 39.4978 146.751 39.7215 146.751 40.0164V49.1837C146.751 49.4684 146.674 49.6921 146.522 49.8548C146.379 50.0175 146.16 50.0989 145.865 50.0989C145.58 50.0989 145.362 50.0175 145.209 49.8548C145.057 49.6921 144.98 49.4684 144.98 49.1837V42.1214H145.316L142.111 47.9634C142.009 48.1363 141.903 48.2634 141.791 48.3447C141.679 48.4261 141.526 48.4668 141.333 48.4668C141.139 48.4668 140.982 48.4261 140.86 48.3447C140.738 48.2532 140.631 48.1261 140.539 47.9634L137.304 42.1061H137.67V49.1837C137.67 49.4684 137.594 49.6921 137.441 49.8548C137.299 50.0175 137.08 50.0989 136.785 50.0989ZM155.452 50.1294C154.831 50.1294 154.318 50.0175 153.911 49.7938C153.504 49.5599 153.198 49.2142 152.995 48.7566C152.802 48.299 152.705 47.7295 152.705 47.0482V43.3569C152.705 43.0315 152.786 42.7925 152.949 42.64C153.112 42.4773 153.346 42.3959 153.651 42.3959C153.956 42.3959 154.19 42.4773 154.353 42.64C154.526 42.7925 154.613 43.0315 154.613 43.3569V47.0787C154.613 47.6075 154.719 47.999 154.933 48.2532C155.147 48.5074 155.488 48.6345 155.956 48.6345C156.464 48.6345 156.881 48.4617 157.207 48.1159C157.533 47.76 157.695 47.2922 157.695 46.7126V43.3569C157.695 43.0315 157.777 42.7925 157.94 42.64C158.102 42.4773 158.336 42.3959 158.642 42.3959C158.947 42.3959 159.181 42.4773 159.344 42.64C159.517 42.7925 159.603 43.0315 159.603 43.3569V49.1226C159.603 49.7735 159.293 50.0989 158.672 50.0989C158.377 50.0989 158.148 50.0175 157.985 49.8548C157.823 49.6819 157.741 49.4379 157.741 49.1226V47.9634L157.955 48.421C157.741 48.9701 157.416 49.3921 156.978 49.687C156.551 49.9819 156.042 50.1294 155.452 50.1294ZM168.135 50.1294C167.698 50.1294 167.235 50.0836 166.747 49.9921C166.258 49.9006 165.821 49.7429 165.434 49.5192C165.272 49.4175 165.155 49.3006 165.083 49.1684C165.022 49.026 164.997 48.8888 165.007 48.7566C165.027 48.6142 165.078 48.4922 165.16 48.3905C165.251 48.2888 165.363 48.2227 165.495 48.1922C165.638 48.1617 165.79 48.1871 165.953 48.2685C166.36 48.4617 166.741 48.5989 167.098 48.6803C167.454 48.7515 167.805 48.7871 168.151 48.7871C168.639 48.7871 169 48.7057 169.234 48.543C169.478 48.3701 169.6 48.1464 169.6 47.8719C169.6 47.638 169.519 47.46 169.356 47.338C169.204 47.2058 168.97 47.1092 168.654 47.0482L167.128 46.7584C166.497 46.6364 166.014 46.4076 165.678 46.072C165.353 45.7262 165.19 45.2839 165.19 44.7449C165.19 44.2568 165.322 43.8348 165.587 43.4789C165.861 43.123 166.238 42.8484 166.716 42.6552C167.194 42.462 167.744 42.3654 168.364 42.3654C168.812 42.3654 169.229 42.4163 169.616 42.518C170.012 42.6095 170.394 42.7569 170.76 42.9603C170.913 43.0417 171.015 43.1484 171.065 43.2806C171.127 43.4128 171.142 43.5501 171.111 43.6925C171.081 43.8247 171.02 43.9467 170.928 44.0585C170.837 44.1602 170.72 44.2263 170.577 44.2568C170.445 44.2772 170.292 44.2467 170.119 44.1653C169.804 44.0026 169.499 43.8857 169.204 43.8145C168.919 43.7433 168.644 43.7077 168.379 43.7077C167.881 43.7077 167.51 43.7942 167.265 43.967C167.031 44.1399 166.914 44.3687 166.914 44.6534C166.914 44.867 166.986 45.0449 167.128 45.1873C167.27 45.3297 167.489 45.4263 167.784 45.4771L169.31 45.7669C169.972 45.8889 170.47 46.1127 170.806 46.4381C171.152 46.7635 171.325 47.2007 171.325 47.7498C171.325 48.4922 171.035 49.0769 170.455 49.504C169.875 49.9209 169.102 50.1294 168.135 50.1294ZM177.618 50.0836C177.312 50.0836 177.078 49.9921 176.916 49.809C176.753 49.626 176.671 49.3718 176.671 49.0464V43.4484C176.671 43.1128 176.753 42.8586 176.916 42.6857C177.078 42.5027 177.312 42.4112 177.618 42.4112C177.923 42.4112 178.157 42.5027 178.32 42.6857C178.493 42.8586 178.579 43.1128 178.579 43.4484V49.0464C178.579 49.3718 178.498 49.626 178.335 49.809C178.172 49.9921 177.933 50.0836 177.618 50.0836ZM177.618 40.9926C177.262 40.9926 176.982 40.9062 176.778 40.7333C176.585 40.5503 176.488 40.3011 176.488 39.9859C176.488 39.6605 176.585 39.4114 176.778 39.2385C176.982 39.0656 177.262 38.9792 177.618 38.9792C177.984 38.9792 178.264 39.0656 178.457 39.2385C178.65 39.4114 178.747 39.6605 178.747 39.9859C178.747 40.3011 178.65 40.5503 178.457 40.7333C178.264 40.9062 177.984 40.9926 177.618 40.9926ZM187.825 50.1294C187.042 50.1294 186.36 49.9717 185.78 49.6565C185.2 49.3311 184.753 48.8735 184.437 48.2837C184.122 47.6939 183.964 47.0024 183.964 46.2093C183.964 45.6093 184.051 45.0754 184.224 44.6077C184.407 44.1297 184.666 43.7281 185.002 43.4027C185.338 43.0671 185.745 42.8129 186.223 42.64C186.701 42.4569 187.235 42.3654 187.825 42.3654C188.161 42.3654 188.522 42.4112 188.909 42.5027C189.306 42.5942 189.677 42.7468 190.023 42.9603C190.186 43.062 190.293 43.184 190.343 43.3264C190.394 43.4687 190.405 43.6162 190.374 43.7687C190.343 43.9111 190.277 44.0382 190.176 44.1501C190.084 44.2518 189.967 44.3179 189.825 44.3484C189.682 44.3687 189.524 44.3331 189.351 44.2416C189.128 44.1094 188.899 44.0128 188.665 43.9518C188.431 43.8806 188.207 43.845 187.993 43.845C187.657 43.845 187.362 43.9009 187.108 44.0128C186.854 44.1145 186.635 44.267 186.452 44.4704C186.279 44.6636 186.147 44.9076 186.055 45.2025C185.963 45.4974 185.918 45.8381 185.918 46.2245C185.918 46.977 186.096 47.5719 186.452 48.0092C186.818 48.4362 187.332 48.6498 187.993 48.6498C188.207 48.6498 188.426 48.6193 188.649 48.5583C188.883 48.4973 189.117 48.4007 189.351 48.2685C189.524 48.1769 189.677 48.1464 189.809 48.1769C189.952 48.2074 190.069 48.2786 190.16 48.3905C190.252 48.4922 190.308 48.6193 190.328 48.7718C190.349 48.9142 190.328 49.0565 190.267 49.1989C190.216 49.3413 190.115 49.4582 189.962 49.5497C189.626 49.7531 189.27 49.9006 188.894 49.9921C188.517 50.0836 188.161 50.1294 187.825 50.1294ZM198.644 50.1294C197.87 50.1294 197.199 49.9717 196.629 49.6565C196.059 49.3413 195.617 48.8938 195.301 48.3142C194.986 47.7244 194.828 47.0329 194.828 46.2398C194.828 45.6398 194.915 45.1059 195.088 44.6382C195.271 44.1602 195.53 43.7535 195.866 43.4179C196.202 43.0722 196.604 42.8129 197.072 42.64C197.54 42.4569 198.064 42.3654 198.644 42.3654C199.417 42.3654 200.088 42.523 200.658 42.8383C201.228 43.1535 201.67 43.6009 201.986 44.1806C202.301 44.7602 202.459 45.4466 202.459 46.2398C202.459 46.8397 202.367 47.3787 202.184 47.8566C202.011 48.3346 201.757 48.7464 201.421 49.0921C201.085 49.4277 200.683 49.687 200.215 49.8701C199.747 50.0429 199.223 50.1294 198.644 50.1294ZM198.644 48.6803C199.02 48.6803 199.351 48.5888 199.636 48.4057C199.92 48.2227 200.139 47.9532 200.292 47.5973C200.455 47.2312 200.536 46.7787 200.536 46.2398C200.536 45.4263 200.363 44.8212 200.017 44.4246C199.671 44.0179 199.213 43.8145 198.644 43.8145C198.267 43.8145 197.936 43.906 197.652 44.089C197.367 44.2619 197.143 44.5314 196.98 44.8975C196.827 45.2534 196.751 45.7008 196.751 46.2398C196.751 47.0431 196.924 47.6532 197.27 48.0702C197.616 48.4769 198.074 48.6803 198.644 48.6803ZM208.826 50.0989C208.51 50.0989 208.266 50.0175 208.093 49.8548C207.931 49.6819 207.849 49.4379 207.849 49.1226V43.3569C207.849 43.0417 207.931 42.8027 208.093 42.64C208.256 42.4773 208.485 42.3959 208.78 42.3959C209.075 42.3959 209.304 42.4773 209.467 42.64C209.63 42.8027 209.711 43.0417 209.711 43.3569V44.3178H209.558C209.701 43.7077 209.981 43.245 210.398 42.9298C210.815 42.6146 211.369 42.4264 212.061 42.3654C212.275 42.3451 212.443 42.401 212.565 42.5332C212.697 42.6552 212.773 42.8484 212.794 43.1128C212.814 43.3671 212.753 43.5755 212.611 43.7382C212.478 43.8908 212.275 43.9823 212 44.0128L211.664 44.0433C211.044 44.1043 210.576 44.2975 210.26 44.6229C209.945 44.9382 209.787 45.3856 209.787 45.9652V49.1226C209.787 49.4379 209.706 49.6819 209.543 49.8548C209.38 50.0175 209.141 50.0989 208.826 50.0989ZM221.2 50.1294C220.355 50.1294 219.628 49.9717 219.017 49.6565C218.407 49.3413 217.934 48.8938 217.598 48.3142C217.272 47.7346 217.11 47.0482 217.11 46.255C217.11 45.4822 217.267 44.806 217.583 44.2263C217.908 43.6467 218.351 43.1942 218.911 42.8688C219.48 42.5332 220.126 42.3654 220.849 42.3654C221.378 42.3654 221.851 42.4519 222.268 42.6247C222.695 42.7976 223.056 43.0467 223.352 43.3721C223.657 43.6975 223.886 44.0941 224.038 44.5619C224.201 45.0195 224.282 45.5381 224.282 46.1177C224.282 46.3008 224.216 46.4431 224.084 46.5448C223.962 46.6364 223.784 46.6821 223.55 46.6821H218.651V45.5839H222.939L222.695 45.8127C222.695 45.3449 222.624 44.9534 222.482 44.6382C222.349 44.3229 222.151 44.084 221.886 43.9213C221.632 43.7484 221.312 43.662 220.925 43.662C220.498 43.662 220.131 43.7636 219.826 43.967C219.531 44.1602 219.302 44.4399 219.139 44.806C218.987 45.1619 218.911 45.589 218.911 46.0872V46.194C218.911 47.0279 219.104 47.6532 219.49 48.0702C219.887 48.4769 220.467 48.6803 221.23 48.6803C221.495 48.6803 221.79 48.6498 222.115 48.5888C222.451 48.5176 222.767 48.4007 223.062 48.238C223.275 48.1159 223.463 48.0651 223.626 48.0854C223.789 48.0956 223.916 48.1515 224.008 48.2532C224.109 48.3549 224.171 48.482 224.191 48.6345C224.211 48.7769 224.181 48.9244 224.099 49.0769C224.028 49.2294 223.901 49.3616 223.718 49.4735C223.362 49.6972 222.95 49.865 222.482 49.9768C222.024 50.0785 221.596 50.1294 221.2 50.1294Z" fill="#404040"/>
<path d="M137.779 62.3376C137.459 62.3376 137.119 62.304 136.761 62.2369C136.403 62.1698 136.082 62.0542 135.799 61.8902C135.679 61.8156 135.593 61.7298 135.541 61.6329C135.496 61.5285 135.478 61.4278 135.485 61.3309C135.5 61.2264 135.537 61.137 135.597 61.0624C135.664 60.9879 135.746 60.9394 135.843 60.917C135.948 60.8946 136.06 60.9132 136.179 60.9729C136.477 61.1146 136.757 61.2153 137.018 61.2749C137.279 61.3271 137.537 61.3532 137.791 61.3532C138.149 61.3532 138.414 61.2936 138.585 61.1743C138.764 61.0475 138.854 60.8834 138.854 60.6821C138.854 60.5106 138.794 60.3801 138.675 60.2906C138.563 60.1937 138.391 60.1228 138.16 60.0781L137.041 59.8655C136.578 59.7761 136.224 59.6083 135.978 59.3622C135.739 59.1087 135.619 58.7843 135.619 58.389C135.619 58.0311 135.716 57.7216 135.91 57.4606C136.112 57.1996 136.388 56.9982 136.739 56.8566C137.089 56.7149 137.492 56.644 137.947 56.644C138.276 56.644 138.581 56.6814 138.865 56.7559C139.156 56.823 139.436 56.9311 139.704 57.0803C139.816 57.14 139.891 57.2183 139.928 57.3152C139.973 57.4121 139.984 57.5128 139.962 57.6172C139.939 57.7141 139.895 57.8036 139.827 57.8857C139.76 57.9602 139.674 58.0087 139.57 58.0311C139.473 58.046 139.361 58.0237 139.234 57.964C139.003 57.8447 138.779 57.7589 138.563 57.7067C138.354 57.6545 138.152 57.6284 137.958 57.6284C137.593 57.6284 137.321 57.6917 137.141 57.8185C136.97 57.9453 136.884 58.1131 136.884 58.3219C136.884 58.4785 136.936 58.609 137.041 58.7134C137.145 58.8178 137.306 58.8886 137.522 58.9259L138.641 59.1385C139.126 59.228 139.492 59.392 139.738 59.6306C139.992 59.8693 140.118 60.1899 140.118 60.5926C140.118 61.137 139.906 61.5658 139.481 61.879C139.055 62.1848 138.488 62.3376 137.779 62.3376ZM146.064 62.3376C145.445 62.3376 144.912 62.222 144.464 61.9908C144.016 61.7597 143.669 61.4315 143.423 61.0065C143.184 60.5814 143.065 60.0781 143.065 59.4964C143.065 58.9297 143.181 58.4338 143.412 58.0087C143.651 57.5836 143.975 57.2518 144.386 57.0132C144.803 56.7671 145.277 56.644 145.807 56.644C146.195 56.644 146.542 56.7074 146.848 56.8342C147.161 56.961 147.426 57.1436 147.642 57.3823C147.866 57.621 148.034 57.9118 148.146 58.2548C148.265 58.5904 148.325 58.9707 148.325 59.3957C148.325 59.53 148.277 59.6344 148.18 59.7089C148.09 59.7761 147.959 59.8096 147.788 59.8096H144.195V59.0042H147.34L147.161 59.172C147.161 58.829 147.109 58.5419 147.004 58.3107C146.907 58.0796 146.762 57.9043 146.568 57.785C146.381 57.6582 146.146 57.5948 145.863 57.5948C145.55 57.5948 145.281 57.6694 145.057 57.8185C144.841 57.9602 144.673 58.1653 144.553 58.4338C144.442 58.6948 144.386 59.008 144.386 59.3734V59.4517C144.386 60.0631 144.527 60.5217 144.811 60.8275C145.102 61.1258 145.527 61.2749 146.087 61.2749C146.281 61.2749 146.497 61.2526 146.736 61.2078C146.982 61.1557 147.213 61.0698 147.43 60.9506C147.586 60.8611 147.724 60.8238 147.844 60.8387C147.963 60.8461 148.056 60.8872 148.124 60.9617C148.198 61.0363 148.243 61.1295 148.258 61.2414C148.273 61.3458 148.25 61.4539 148.191 61.5658C148.138 61.6776 148.045 61.7745 147.911 61.8566C147.65 62.0206 147.348 62.1437 147.004 62.2257C146.669 62.3003 146.355 62.3376 146.064 62.3376ZM153.361 62.3376C152.966 62.3376 152.611 62.2631 152.298 62.1139C151.992 61.9573 151.75 61.7485 151.57 61.4875C151.399 61.2264 151.313 60.932 151.313 60.6038C151.313 60.2011 151.417 59.8841 151.626 59.653C151.835 59.4143 152.175 59.2429 152.645 59.1385C153.115 59.034 153.745 58.9819 154.536 58.9819H155.096V59.7872H154.547C154.085 59.7872 153.716 59.8096 153.439 59.8544C153.163 59.8991 152.966 59.9774 152.846 60.0893C152.734 60.1937 152.678 60.3428 152.678 60.5367C152.678 60.7828 152.764 60.9841 152.936 61.1407C153.107 61.2973 153.346 61.3756 153.652 61.3756C153.898 61.3756 154.115 61.3197 154.301 61.2078C154.495 61.0886 154.648 60.9282 154.76 60.7268C154.872 60.5255 154.928 60.2944 154.928 60.0333V58.747C154.928 58.3741 154.846 58.1056 154.682 57.9416C154.518 57.7776 154.242 57.6955 153.854 57.6955C153.637 57.6955 153.402 57.7216 153.149 57.7738C152.902 57.826 152.641 57.9155 152.365 58.0423C152.223 58.1094 152.097 58.128 151.985 58.0982C151.88 58.0684 151.798 58.0087 151.738 57.9192C151.679 57.8223 151.649 57.7179 151.649 57.606C151.649 57.4942 151.679 57.3861 151.738 57.2816C151.798 57.1698 151.899 57.0877 152.041 57.0355C152.384 56.8939 152.712 56.7932 153.025 56.7335C153.346 56.6738 153.637 56.644 153.898 56.644C154.436 56.644 154.876 56.7261 155.219 56.8901C155.57 57.0542 155.831 57.304 156.002 57.6396C156.174 57.9677 156.26 58.3928 156.26 58.9148V61.5993C156.26 61.8305 156.204 62.0094 156.092 62.1363C155.98 62.2555 155.82 62.3152 155.611 62.3152C155.402 62.3152 155.238 62.2555 155.118 62.1363C155.006 62.0094 154.95 61.8305 154.95 61.5993V61.0624H155.04C154.988 61.3235 154.883 61.5508 154.727 61.7447C154.577 61.9311 154.387 62.0766 154.156 62.181C153.924 62.2854 153.66 62.3376 153.361 62.3376ZM160.522 62.3152C160.291 62.3152 160.112 62.2555 159.985 62.1363C159.866 62.0094 159.806 61.8305 159.806 61.5993V57.3711C159.806 57.14 159.866 56.9647 159.985 56.8454C160.104 56.7261 160.272 56.6664 160.489 56.6664C160.705 56.6664 160.873 56.7261 160.992 56.8454C161.112 56.9647 161.171 57.14 161.171 57.3711V58.0758H161.06C161.164 57.6284 161.369 57.2891 161.675 57.0579C161.981 56.8268 162.388 56.6888 162.895 56.644C163.052 56.6291 163.175 56.6702 163.264 56.7671C163.361 56.8566 163.417 56.9982 163.432 57.1921C163.447 57.3785 163.402 57.5315 163.298 57.6508C163.201 57.7626 163.052 57.8297 162.85 57.8521L162.604 57.8745C162.149 57.9192 161.806 58.0609 161.574 58.2995C161.343 58.5307 161.227 58.8588 161.227 59.2839V61.5993C161.227 61.8305 161.168 62.0094 161.048 62.1363C160.929 62.2555 160.754 62.3152 160.522 62.3152ZM168.757 62.3376C168.182 62.3376 167.683 62.222 167.257 61.9908C166.832 61.7522 166.503 61.4166 166.272 60.9841C166.042 60.5516 165.926 60.0445 165.926 59.4629C165.926 59.0228 165.989 58.6313 166.116 58.2883C166.25 57.9378 166.44 57.6433 166.687 57.4047C166.933 57.1586 167.231 56.9722 167.582 56.8454C167.933 56.7112 168.325 56.644 168.757 56.644C169.003 56.644 169.268 56.6776 169.552 56.7447C169.843 56.8118 170.115 56.9237 170.369 57.0803C170.488 57.1548 170.566 57.2443 170.604 57.3487C170.641 57.4532 170.648 57.5613 170.626 57.6731C170.604 57.7776 170.555 57.8707 170.481 57.9528C170.413 58.0273 170.328 58.0758 170.223 58.0982C170.118 58.1131 170.003 58.087 169.876 58.0199C169.712 57.923 169.544 57.8521 169.373 57.8074C169.201 57.7552 169.037 57.7291 168.88 57.7291C168.634 57.7291 168.417 57.77 168.231 57.8521C168.045 57.9266 167.884 58.0385 167.75 58.1877C167.623 58.3293 167.526 58.5083 167.459 58.7246C167.392 58.9409 167.358 59.1906 167.358 59.474C167.358 60.0259 167.488 60.4621 167.75 60.7828C168.018 61.096 168.395 61.2526 168.88 61.2526C169.037 61.2526 169.198 61.2302 169.361 61.1855C169.533 61.1407 169.704 61.0698 169.876 60.9729C170.003 60.9058 170.115 60.8834 170.212 60.9058C170.317 60.9282 170.402 60.9804 170.469 61.0624C170.536 61.137 170.577 61.2302 170.592 61.3421C170.608 61.4465 170.592 61.5508 170.548 61.6553C170.51 61.7597 170.436 61.8454 170.324 61.9125C170.078 62.0617 169.816 62.1698 169.54 62.2369C169.265 62.304 169.003 62.3376 168.757 62.3376ZM174.326 62.3152C174.103 62.3152 173.932 62.2555 173.812 62.1363C173.692 62.0094 173.632 61.8305 173.632 61.5993V54.955C173.632 54.7239 173.692 54.5485 173.812 54.4293C173.932 54.31 174.103 54.2503 174.326 54.2503C174.55 54.2503 174.722 54.31 174.841 54.4293C174.968 54.5485 175.031 54.7239 175.031 54.955V57.8521H174.875C175.04 57.4568 175.293 57.1586 175.636 56.9572C175.987 56.7485 176.383 56.644 176.822 56.644C177.263 56.644 177.625 56.7261 177.908 56.8901C178.192 57.0542 178.404 57.304 178.546 57.6396C178.688 57.9677 178.758 58.3853 178.758 58.8924V61.5993C178.758 61.8305 178.699 62.0094 178.579 62.1363C178.46 62.2555 178.288 62.3152 178.064 62.3152C177.84 62.3152 177.666 62.2555 177.538 62.1363C177.419 62.0094 177.359 61.8305 177.359 61.5993V58.9595C177.359 58.5344 177.278 58.225 177.113 58.0311C176.956 57.8372 176.71 57.7402 176.374 57.7402C175.964 57.7402 175.636 57.8707 175.39 58.1317C175.151 58.3853 175.031 58.7246 175.031 59.1497V61.5993C175.031 62.0766 174.796 62.3152 174.326 62.3152ZM188.187 62.3152C187.963 62.3152 187.792 62.2555 187.672 62.1363C187.553 62.0094 187.493 61.8305 187.493 61.5993V57.3711C187.493 57.14 187.553 56.9647 187.672 56.8454C187.792 56.7261 187.96 56.6664 188.175 56.6664C188.392 56.6664 188.56 56.7261 188.679 56.8454C188.799 56.9647 188.858 57.14 188.858 57.3711V58.1877L188.735 57.8521C188.885 57.4792 189.116 57.1847 189.429 56.9684C189.742 56.7521 190.116 56.644 190.548 56.644C190.989 56.644 191.351 56.7485 191.634 56.9572C191.917 57.166 192.115 57.4867 192.227 57.9192H192.07C192.22 57.524 192.466 57.2145 192.809 56.9908C193.153 56.7597 193.547 56.644 193.995 56.644C194.413 56.644 194.756 56.7261 195.025 56.8901C195.301 57.0542 195.506 57.304 195.64 57.6396C195.775 57.9677 195.842 58.3853 195.842 58.8924V61.5993C195.842 61.8305 195.779 62.0094 195.651 62.1363C195.532 62.2555 195.36 62.3152 195.137 62.3152C194.913 62.3152 194.742 62.2555 194.622 62.1363C194.503 62.0094 194.443 61.8305 194.443 61.5993V58.9483C194.443 58.5307 194.373 58.225 194.23 58.0311C194.096 57.8372 193.865 57.7402 193.536 57.7402C193.171 57.7402 192.884 57.8707 192.674 58.1317C192.466 58.3853 192.361 58.7395 192.361 59.1944V61.5993C192.361 61.8305 192.302 62.0094 192.182 62.1363C192.063 62.2555 191.891 62.3152 191.667 62.3152C191.443 62.3152 191.268 62.2555 191.141 62.1363C191.022 62.0094 190.962 61.8305 190.962 61.5993V58.9483C190.962 58.5307 190.892 58.225 190.749 58.0311C190.615 57.8372 190.388 57.7402 190.067 57.7402C189.702 57.7402 189.415 57.8707 189.205 58.1317C188.996 58.3853 188.892 58.7395 188.892 59.1944V61.5993C188.892 62.0766 188.657 62.3152 188.187 62.3152ZM201.393 62.3376C200.937 62.3376 200.56 62.2555 200.262 62.0915C199.963 61.92 199.739 61.6665 199.591 61.3309C199.448 60.9953 199.378 60.5777 199.378 60.0781V57.3711C199.378 57.1325 199.437 56.9572 199.557 56.8454C199.676 56.7261 199.848 56.6664 200.072 56.6664C200.296 56.6664 200.467 56.7261 200.587 56.8454C200.713 56.9572 200.777 57.1325 200.777 57.3711V60.1004C200.777 60.4882 200.855 60.7753 201.012 60.9617C201.169 61.1481 201.418 61.2414 201.762 61.2414C202.134 61.2414 202.441 61.1146 202.68 60.8611C202.919 60.6 203.038 60.257 203.038 59.832V57.3711C203.038 57.1325 203.098 56.9572 203.217 56.8454C203.336 56.7261 203.508 56.6664 203.732 56.6664C203.956 56.6664 204.128 56.7261 204.247 56.8454C204.373 56.9572 204.437 57.1325 204.437 57.3711V61.5993C204.437 62.0766 204.209 62.3152 203.754 62.3152C203.537 62.3152 203.37 62.2555 203.25 62.1363C203.131 62.0094 203.071 61.8305 203.071 61.5993V60.7492L203.228 61.0848C203.071 61.4875 202.832 61.7969 202.512 62.0132C202.198 62.2295 201.825 62.3376 201.393 62.3376ZM210.022 62.3376C209.702 62.3376 209.362 62.304 209.004 62.2369C208.646 62.1698 208.325 62.0542 208.042 61.8902C207.922 61.8156 207.836 61.7298 207.784 61.6329C207.739 61.5285 207.721 61.4278 207.728 61.3309C207.743 61.2264 207.78 61.137 207.84 61.0624C207.907 60.9879 207.99 60.9394 208.086 60.917C208.191 60.8946 208.303 60.9132 208.422 60.9729C208.72 61.1146 209 61.2153 209.261 61.2749C209.523 61.3271 209.78 61.3532 210.034 61.3532C210.392 61.3532 210.656 61.2936 210.828 61.1743C211.007 61.0475 211.097 60.8834 211.097 60.6821C211.097 60.5106 211.037 60.3801 210.918 60.2906C210.806 60.1937 210.634 60.1228 210.403 60.0781L209.284 59.8655C208.821 59.7761 208.467 59.6083 208.221 59.3622C207.981 59.1087 207.862 58.7843 207.862 58.389C207.862 58.0311 207.959 57.7216 208.153 57.4606C208.355 57.1996 208.631 56.9982 208.982 56.8566C209.333 56.7149 209.736 56.644 210.19 56.644C210.519 56.644 210.824 56.6814 211.108 56.7559C211.399 56.823 211.679 56.9311 211.947 57.0803C212.059 57.14 212.134 57.2183 212.171 57.3152C212.216 57.4121 212.227 57.5128 212.205 57.6172C212.182 57.7141 212.138 57.8036 212.07 57.8857C212.003 57.9602 211.918 58.0087 211.813 58.0311C211.716 58.046 211.604 58.0237 211.477 57.964C211.246 57.8447 211.023 57.7589 210.806 57.7067C210.597 57.6545 210.396 57.6284 210.201 57.6284C209.836 57.6284 209.564 57.6917 209.384 57.8185C209.213 57.9453 209.127 58.1131 209.127 58.3219C209.127 58.4785 209.179 58.609 209.284 58.7134C209.389 58.8178 209.548 58.8886 209.765 58.9259L210.884 59.1385C211.369 59.228 211.735 59.392 211.981 59.6306C212.234 59.8693 212.361 60.1899 212.361 60.5926C212.361 61.137 212.149 61.5658 211.724 61.879C211.298 62.1848 210.732 62.3376 210.022 62.3376ZM216.304 62.304C216.08 62.304 215.908 62.2369 215.789 62.1027C215.67 61.9685 215.61 61.7821 215.61 61.5434V57.4382C215.61 57.1921 215.67 57.0057 215.789 56.8789C215.908 56.7447 216.08 56.6776 216.304 56.6776C216.528 56.6776 216.7 56.7447 216.819 56.8789C216.946 57.0057 217.009 57.1921 217.009 57.4382V61.5434C217.009 61.7821 216.949 61.9685 216.83 62.1027C216.711 62.2369 216.535 62.304 216.304 62.304ZM216.304 55.6373C216.042 55.6373 215.838 55.574 215.688 55.4472C215.547 55.3129 215.476 55.1302 215.476 54.8991C215.476 54.6604 215.547 54.4778 215.688 54.351C215.838 54.2241 216.042 54.1608 216.304 54.1608C216.573 54.1608 216.778 54.2241 216.919 54.351C217.061 54.4778 217.132 54.6604 217.132 54.8991C217.132 55.1302 217.061 55.3129 216.919 55.4472C216.778 55.574 216.573 55.6373 216.304 55.6373ZM223.119 62.3376C222.544 62.3376 222.044 62.222 221.619 61.9908C221.194 61.7522 220.865 61.4166 220.634 60.9841C220.402 60.5516 220.287 60.0445 220.287 59.4629C220.287 59.0228 220.35 58.6313 220.477 58.2883C220.612 57.9378 220.802 57.6433 221.048 57.4047C221.294 57.1586 221.592 56.9722 221.943 56.8454C222.293 56.7112 222.685 56.644 223.119 56.644C223.365 56.644 223.629 56.6776 223.913 56.7447C224.204 56.8118 224.476 56.9237 224.73 57.0803C224.849 57.1548 224.928 57.2443 224.965 57.3487C225.002 57.4532 225.01 57.5613 224.988 57.6731C224.965 57.7776 224.916 57.8707 224.842 57.9528C224.775 58.0273 224.688 58.0758 224.585 58.0982C224.48 58.1131 224.364 58.087 224.238 58.0199C224.073 57.923 223.905 57.8521 223.734 57.8074C223.562 57.7552 223.398 57.7291 223.242 57.7291C222.995 57.7291 222.779 57.77 222.593 57.8521C222.405 57.9266 222.246 58.0385 222.111 58.1877C221.984 58.3293 221.888 58.5083 221.82 58.7246C221.753 58.9409 221.72 59.1906 221.72 59.474C221.72 60.0259 221.85 60.4621 222.111 60.7828C222.38 61.096 222.756 61.2526 223.242 61.2526C223.398 61.2526 223.558 61.2302 223.723 61.1855C223.894 61.1407 224.066 61.0698 224.238 60.9729C224.364 60.9058 224.476 60.8834 224.574 60.9058C224.677 60.9282 224.764 60.9804 224.831 61.0624C224.898 61.137 224.939 61.2302 224.954 61.3421C224.968 61.4465 224.954 61.5508 224.909 61.6553C224.872 61.7597 224.797 61.8454 224.685 61.9125C224.439 62.0617 224.178 62.1698 223.902 62.2369C223.625 62.304 223.365 62.3376 223.119 62.3376Z" fill="#CDCDCD"/>
</svg>
