<svg width="252" height="102" viewBox="0 0 252 102" fill="none" xmlns="http://www.w3.org/2000/svg">
<rect x="0.75" y="0.75" width="250" height="100" rx="17" fill="#FFB2B2" stroke="white" stroke-width="1.5"/>
<path d="M106.008 31.4C106.008 32.7667 105.391 33.9167 104.158 34.85C102.924 35.7667 101.508 36.225 99.9076 36.225C98.3243 36.225 97.016 35.8167 95.9826 35C94.9493 34.1667 94.4326 33.3833 94.4326 32.65C94.4326 32.15 94.5826 31.9 94.8826 31.9C95.1493 31.9 95.6743 32.3 96.4576 33.1C96.7576 33.3833 97.1576 33.65 97.6576 33.9C98.1743 34.15 98.716 34.275 99.2826 34.275C100.449 34.275 101.483 33.975 102.383 33.375C103.299 32.775 103.758 32.125 103.758 31.425C103.758 30.975 103.458 30.4 102.858 29.7C102.258 29 101.591 28.3417 100.858 27.725C100.141 27.0917 99.4826 26.4167 98.8826 25.7C98.2826 24.9833 97.9826 24.4167 97.9826 24C97.9826 23.5833 98.066 23.1417 98.2326 22.675C98.3993 22.2083 98.5826 21.8667 98.7826 21.65C99.4326 20.9333 100.441 20.275 101.808 19.675C103.191 19.075 104.349 18.775 105.283 18.775C105.766 18.775 106.174 18.9333 106.508 19.25C106.841 19.5667 107.008 19.9 107.008 20.25C107.008 20.4167 106.833 20.55 106.483 20.65C106.133 20.75 105.599 20.8833 104.883 21.05C104.183 21.2 103.558 21.3833 103.008 21.6C101.091 22.3333 100.133 23.0417 100.133 23.725C100.133 24.0917 101.108 25.1167 103.058 26.8C103.808 27.45 104.483 28.2083 105.083 29.075C105.699 29.925 106.008 30.7 106.008 31.4ZM117.214 24.675C117.281 24.4083 117.347 24.225 117.414 24.125C117.481 24.025 117.622 23.975 117.839 23.975C118.072 23.975 118.347 24.1917 118.664 24.625C118.997 25.0583 119.164 25.475 119.164 25.875C119.164 26.0917 118.797 27.375 118.064 29.725C117.331 32.075 116.764 33.9417 116.364 35.325C116.164 36.025 115.881 36.375 115.514 36.375C115.297 36.375 115.114 36.2833 114.964 36.1C114.814 35.9167 114.739 35.5833 114.739 35.1C114.739 34.6167 114.931 33.7417 115.314 32.475C114.614 33.6083 113.856 34.5417 113.039 35.275C112.222 36.0083 111.472 36.375 110.789 36.375C110.122 36.375 109.489 36.0583 108.889 35.425C108.289 34.7917 107.989 34.1417 107.989 33.475C107.989 31.8917 108.447 29.9167 109.364 27.55C110.297 25.1667 111.072 23.975 111.689 23.975C111.989 23.975 112.247 24.1167 112.464 24.4C112.697 24.6667 112.814 24.975 112.814 25.325C112.814 25.475 112.589 26.0167 112.139 26.95C111.689 27.8667 111.239 28.95 110.789 30.2C110.339 31.4333 110.114 32.5167 110.114 33.45C110.114 33.7167 110.197 33.9417 110.364 34.125C110.531 34.2917 110.731 34.375 110.964 34.375C111.597 34.375 112.347 33.8167 113.214 32.7C114.097 31.5833 114.897 30.2833 115.614 28.8C116.331 27.3167 116.864 25.9417 117.214 24.675ZM128.575 23.9C129.292 23.9 129.908 24.3583 130.425 25.275C130.958 26.1917 131.225 27.1417 131.225 28.125C131.225 29.0917 130.942 30.0667 130.375 31.05C129.808 32.0167 129.108 32.8833 128.275 33.65C127.442 34.4167 126.517 35.0583 125.5 35.575C124.5 36.075 123.575 36.325 122.725 36.325C122.392 36.325 122.075 36.2833 121.775 36.2C121.708 36.4833 121.592 36.9917 121.425 37.725C121.258 38.4583 121.117 39.0667 121 39.55C120.883 40.0333 120.75 40.55 120.6 41.1C120.3 42.2333 120.033 42.8 119.8 42.8C119.567 42.8 119.325 42.6167 119.075 42.25C118.808 41.9 118.675 41.5833 118.675 41.3C118.675 41.0167 118.942 39.8 119.475 37.65C121.075 31.1667 121.875 26.8 121.875 24.55C121.875 24.05 122.058 23.8 122.425 23.8C122.725 23.8 123.083 24.025 123.5 24.475C123.933 24.9083 124.15 25.3917 124.15 25.925C124.15 26.1917 124.117 26.4833 124.05 26.8C125.533 24.8667 127.042 23.9 128.575 23.9ZM122.475 34.375C123.358 34.375 124.308 34.075 125.325 33.475C126.358 32.875 127.233 32.0833 127.95 31.1C128.683 30.1 129.05 29.1083 129.05 28.125C129.05 26.7417 128.725 26.05 128.075 26.05C127.425 26.05 126.542 26.6083 125.425 27.725C124.325 28.8417 123.45 30.2917 122.8 32.075L122.225 34.375H122.475ZM140.513 23.9C141.23 23.9 141.847 24.3583 142.363 25.275C142.897 26.1917 143.163 27.1417 143.163 28.125C143.163 29.0917 142.88 30.0667 142.313 31.05C141.747 32.0167 141.047 32.8833 140.213 33.65C139.38 34.4167 138.455 35.0583 137.438 35.575C136.438 36.075 135.513 36.325 134.663 36.325C134.33 36.325 134.013 36.2833 133.713 36.2C133.647 36.4833 133.53 36.9917 133.363 37.725C133.197 38.4583 133.055 39.0667 132.938 39.55C132.822 40.0333 132.688 40.55 132.538 41.1C132.238 42.2333 131.972 42.8 131.738 42.8C131.505 42.8 131.263 42.6167 131.013 42.25C130.747 41.9 130.613 41.5833 130.613 41.3C130.613 41.0167 130.88 39.8 131.413 37.65C133.013 31.1667 133.813 26.8 133.813 24.55C133.813 24.05 133.997 23.8 134.363 23.8C134.663 23.8 135.022 24.025 135.438 24.475C135.872 24.9083 136.088 25.3917 136.088 25.925C136.088 26.1917 136.055 26.4833 135.988 26.8C137.472 24.8667 138.98 23.9 140.513 23.9ZM134.413 34.375C135.297 34.375 136.247 34.075 137.263 33.475C138.297 32.875 139.172 32.0833 139.888 31.1C140.622 30.1 140.988 29.1083 140.988 28.125C140.988 26.7417 140.663 26.05 140.013 26.05C139.363 26.05 138.48 26.6083 137.363 27.725C136.263 28.8417 135.388 30.2917 134.738 32.075L134.163 34.375H134.413ZM151.827 28.225C151.827 27.6583 151.735 27.125 151.552 26.625C151.369 26.1083 151.102 25.7333 150.752 25.5C149.602 25.8167 148.61 26.7083 147.777 28.175C146.96 29.625 146.552 30.9917 146.552 32.275C146.552 33.5583 146.869 34.3583 147.502 34.675C148.702 34.4417 149.719 33.625 150.552 32.225C151.402 30.8083 151.827 29.475 151.827 28.225ZM145.252 28.45C145.835 27.15 146.594 26.0833 147.527 25.25C148.477 24.4 149.444 23.975 150.427 23.975C151.427 23.975 152.26 24.4 152.927 25.25C153.594 26.0833 153.927 27.1083 153.927 28.325C153.927 29.525 153.635 30.7583 153.052 32.025C152.469 33.275 151.66 34.3167 150.627 35.15C149.61 35.9667 148.527 36.375 147.377 36.375C146.527 36.375 145.819 35.9833 145.252 35.2C144.685 34.4167 144.402 33.425 144.402 32.225C144.402 31.0083 144.685 29.75 145.252 28.45ZM157.105 27.025L157.03 25.15C157.03 24.3667 157.213 23.975 157.58 23.975C157.897 23.975 158.197 24.1833 158.48 24.6C158.78 25 158.93 25.4833 158.93 26.05C158.93 26.6 158.913 27.0167 158.88 27.3C160.33 25.1 161.705 24 163.005 24C163.822 24 164.23 24.2 164.23 24.6C164.23 24.8 164.138 24.9833 163.955 25.15C163.772 25.3167 163.48 25.5083 163.08 25.725C162.197 26.1083 161.447 26.7 160.83 27.5C160.23 28.2833 159.738 29.175 159.355 30.175C158.972 31.175 158.663 32.0167 158.43 32.7C158.213 33.3833 158.047 33.9167 157.93 34.3C157.813 34.6833 157.68 35.0583 157.53 35.425C157.263 36.0917 156.955 36.425 156.605 36.425C156.322 36.425 156.088 36.2667 155.905 35.95C155.738 35.6167 155.655 35.3 155.655 35C155.655 34.6833 155.797 34.0667 156.08 33.15C156.763 31.05 157.105 29.0083 157.105 27.025ZM166.681 33.875C166.681 34.1917 166.865 34.35 167.231 34.35C167.865 34.35 168.631 34.175 169.531 33.825C170.448 33.4583 170.956 33.275 171.056 33.275C171.356 33.275 171.506 33.4333 171.506 33.75C171.506 34.2333 171.006 34.7917 170.006 35.425C169.023 36.0583 168.123 36.375 167.306 36.375C166.506 36.375 165.84 36.1583 165.306 35.725C164.773 35.275 164.506 34.8167 164.506 34.35C164.506 33.8833 164.606 33.2917 164.806 32.575C165.006 31.8417 165.29 30.8833 165.656 29.7C166.04 28.5 166.34 27.5083 166.556 26.725C165.773 26.9083 165.248 27 164.981 27C164.715 27 164.448 26.8667 164.181 26.6C163.931 26.3167 163.806 26.05 163.806 25.8C163.806 25.4 164.89 25.0167 167.056 24.65C167.356 23.2667 167.506 22.0417 167.506 20.975C167.506 20.475 167.673 20.225 168.006 20.225C168.29 20.225 168.64 20.4083 169.056 20.775C169.473 21.125 169.681 21.525 169.681 21.975C169.681 22.425 169.54 23.2167 169.256 24.35C170.206 24.2667 170.965 24.225 171.531 24.225C172.531 24.225 173.031 24.4417 173.031 24.875C173.031 25.125 172.756 25.3333 172.206 25.5C171.673 25.6667 170.54 25.925 168.806 26.275C168.456 27.5917 168.015 29.1 167.481 30.8C166.948 32.4833 166.681 33.5083 166.681 33.875ZM189.909 20.95L185.634 21.15C185.367 21.15 185.092 20.975 184.809 20.625C184.525 20.275 184.384 19.9333 184.384 19.6C184.384 19.3 184.859 19.1083 185.809 19.025C186.775 18.9417 188.884 18.9 192.134 18.9C193.817 18.9 195.2 19.0833 196.284 19.45C197.384 19.8167 197.934 20.225 197.934 20.675C197.934 20.9917 197.659 21.15 197.109 21.15C196.559 21.15 195.792 21.1167 194.809 21.05C193.825 20.9833 192.884 20.9417 191.984 20.925C192.034 21.0917 192.059 21.275 192.059 21.475C192.059 22.0917 191.409 24.9583 190.109 30.075C189.975 30.6083 189.775 31.4417 189.509 32.575C189.242 33.7083 189.042 34.5 188.909 34.95C188.675 35.8333 188.467 36.275 188.284 36.275C188.034 36.275 187.75 36.0917 187.434 35.725C187.134 35.3417 186.984 34.9583 186.984 34.575C186.984 34.1917 187.434 32.225 188.334 28.675C189.234 25.1083 189.759 22.5333 189.909 20.95ZM199.913 17.95C199.913 17.3 200.113 16.975 200.513 16.975C200.829 16.975 201.163 17.225 201.513 17.725C201.879 18.225 202.063 18.7083 202.063 19.175C202.063 20.2583 201.788 22.1083 201.238 24.725C200.704 27.325 200.004 29.925 199.138 32.525C200.804 29.5083 202.196 27.3333 203.313 26C204.446 24.65 205.413 23.975 206.213 23.975C206.646 23.975 207.146 24.35 207.713 25.1C208.296 25.85 208.588 26.6 208.588 27.35C208.588 28.1 208.379 29.225 207.963 30.725C206.929 34.4917 205.954 36.375 205.038 36.375C204.671 36.375 204.488 36.125 204.488 35.625C204.488 35.125 204.688 34.2833 205.088 33.1C205.971 30.5167 206.413 28.775 206.413 27.875C206.413 27.575 206.338 27.325 206.188 27.125C206.038 26.925 205.854 26.825 205.638 26.825C205.421 26.825 205.154 26.9417 204.838 27.175C204.521 27.4083 204.138 27.8167 203.688 28.4C203.121 29.15 202.529 29.9917 201.913 30.925C201.313 31.8583 200.946 32.425 200.813 32.625C200.696 32.8083 200.479 33.15 200.163 33.65C199.863 34.15 199.638 34.525 199.487 34.775C199.338 35.0083 199.154 35.2667 198.938 35.55C198.554 36.1 198.263 36.375 198.063 36.375C197.863 36.375 197.596 36.1917 197.263 35.825C196.929 35.4417 196.763 35.125 196.763 34.875C196.763 34.6083 196.854 34.1167 197.038 33.4C197.871 30.2 198.396 28.0083 198.613 26.825C199.479 22.4917 199.913 19.5333 199.913 17.95ZM213.566 20.425C213.566 20.0917 213.699 19.775 213.966 19.475C214.232 19.175 214.499 19.025 214.766 19.025C215.049 19.025 215.382 19.3667 215.766 20.05C216.149 20.7167 216.341 21.275 216.341 21.725C216.341 21.8917 216.266 22.0417 216.116 22.175C215.966 22.3083 215.807 22.375 215.641 22.375C215.241 22.375 214.791 22.1333 214.291 21.65C213.807 21.1667 213.566 20.7583 213.566 20.425ZM213.441 23.975C213.757 23.975 214.057 24.1667 214.341 24.55C214.624 24.9333 214.766 25.3083 214.766 25.675C214.766 26.0417 214.524 27.1417 214.041 28.975C213.557 30.7917 212.949 32.8333 212.216 35.1C211.932 35.9333 211.574 36.35 211.141 36.35C210.907 36.35 210.707 36.2583 210.541 36.075C210.374 35.875 210.291 35.6583 210.291 35.425C210.291 35.175 210.349 34.7917 210.466 34.275C210.599 33.7417 210.782 33.0417 211.016 32.175C211.266 31.2917 211.457 30.575 211.591 30.025C211.741 29.475 211.891 28.8583 212.041 28.175C212.191 27.475 212.307 26.9167 212.391 26.5C212.491 26.0667 212.599 25.6333 212.716 25.2C212.949 24.3833 213.191 23.975 213.441 23.975ZM223.473 23.975C224.04 23.975 224.573 24.2917 225.073 24.925C225.573 25.5417 225.823 26.0833 225.823 26.55C225.823 26.8333 225.69 26.975 225.423 26.975C225.24 26.975 224.956 26.8333 224.573 26.55C224.19 26.25 223.798 26.1 223.398 26.1C222.998 26.1 222.365 26.3333 221.498 26.8C220.648 27.2667 220.223 27.7583 220.223 28.275C220.223 28.6583 220.99 29.3167 222.523 30.25C223.106 30.6167 223.631 31.0917 224.098 31.675C224.581 32.2417 224.823 32.8583 224.823 33.525C224.823 34.175 224.365 34.8167 223.448 35.45C222.548 36.0667 221.49 36.375 220.273 36.375C219.073 36.375 218.006 36.0833 217.073 35.5C216.156 34.9167 215.698 34.3667 215.698 33.85C215.698 33.6333 215.748 33.4667 215.848 33.35C215.965 33.2167 216.106 33.15 216.273 33.15C216.44 33.15 216.673 33.2583 216.973 33.475C217.873 34.125 218.806 34.45 219.773 34.45C220.756 34.45 221.465 34.3417 221.898 34.125C222.331 33.8917 222.548 33.5917 222.548 33.225C222.548 32.8417 222.306 32.4417 221.823 32.025C221.34 31.5917 220.806 31.2083 220.223 30.875C219.656 30.5417 219.131 30.1333 218.648 29.65C218.165 29.1667 217.923 28.675 217.923 28.175C217.923 27.2917 218.615 26.375 219.998 25.425C221.398 24.4583 222.556 23.975 223.473 23.975ZM138.434 62.925C138.434 64.725 137.567 66.25 135.834 67.5C134.117 68.75 131.842 69.65 129.009 70.2C127.792 74.3167 127.067 76.375 126.834 76.375C126.601 76.375 126.326 76.1917 126.009 75.825C125.692 75.4417 125.534 75.0667 125.534 74.7C125.534 74.3167 125.776 73.3167 126.259 71.7C127.759 66.7167 128.542 63.2417 128.609 61.275C128.209 60.9083 128.009 60.575 128.009 60.275C128.009 59.8583 128.576 59.4583 129.709 59.075C130.842 58.6917 131.926 58.5 132.959 58.5C134.559 58.5 135.867 58.9083 136.884 59.725C137.917 60.5417 138.434 61.6083 138.434 62.925ZM136.234 63.075C136.234 62.3417 135.951 61.7417 135.384 61.275C134.834 60.7917 134.167 60.55 133.384 60.55C132.601 60.55 131.651 60.8 130.534 61.3C130.701 61.6667 130.784 62.0083 130.784 62.325C130.784 63.2583 130.376 65.2333 129.559 68.25C131.559 67.7167 133.167 66.9833 134.384 66.05C135.617 65.1 136.234 64.1083 136.234 63.075ZM140.308 67.025L140.233 65.15C140.233 64.3667 140.417 63.975 140.783 63.975C141.1 63.975 141.4 64.1833 141.683 64.6C141.983 65 142.133 65.4833 142.133 66.05C142.133 66.6 142.117 67.0167 142.083 67.3C143.533 65.1 144.908 64 146.208 64C147.025 64 147.433 64.2 147.433 64.6C147.433 64.8 147.342 64.9833 147.158 65.15C146.975 65.3167 146.683 65.5083 146.283 65.725C145.4 66.1083 144.65 66.7 144.033 67.5C143.433 68.2833 142.942 69.175 142.558 70.175C142.175 71.175 141.867 72.0167 141.633 72.7C141.417 73.3833 141.25 73.9167 141.133 74.3C141.017 74.6833 140.883 75.0583 140.733 75.425C140.467 76.0917 140.158 76.425 139.808 76.425C139.525 76.425 139.292 76.2667 139.108 75.95C138.942 75.6167 138.858 75.3 138.858 75C138.858 74.6833 139 74.0667 139.283 73.15C139.967 71.05 140.308 69.0083 140.308 67.025ZM154.635 68.225C154.635 67.6583 154.543 67.125 154.36 66.625C154.176 66.1083 153.91 65.7333 153.56 65.5C152.41 65.8167 151.418 66.7083 150.585 68.175C149.768 69.625 149.36 70.9917 149.36 72.275C149.36 73.5583 149.676 74.3583 150.31 74.675C151.51 74.4417 152.526 73.625 153.36 72.225C154.21 70.8083 154.635 69.475 154.635 68.225ZM148.06 68.45C148.643 67.15 149.401 66.0833 150.335 65.25C151.285 64.4 152.251 63.975 153.235 63.975C154.235 63.975 155.068 64.4 155.735 65.25C156.401 66.0833 156.735 67.1083 156.735 68.325C156.735 69.525 156.443 70.7583 155.86 72.025C155.276 73.275 154.468 74.3167 153.435 75.15C152.418 75.9667 151.335 76.375 150.185 76.375C149.335 76.375 148.626 75.9833 148.06 75.2C147.493 74.4167 147.21 73.425 147.21 72.225C147.21 71.0083 147.493 69.75 148.06 68.45ZM153.913 79.775C154.629 80.6917 155.221 81.15 155.688 81.15C156.154 81.15 156.546 80.9 156.863 80.4C157.179 79.9 157.488 79.1083 157.788 78.025C158.088 76.9583 158.371 75.8583 158.638 74.725C158.904 73.5917 159.246 72.0917 159.663 70.225C160.096 68.3583 160.513 66.6833 160.913 65.2C161.163 64.3833 161.404 63.975 161.638 63.975C161.921 63.975 162.213 64.1583 162.513 64.525C162.813 64.875 162.963 65.2583 162.963 65.675C162.963 66.0583 162.704 67.225 162.188 69.175C161.671 71.1083 161.213 72.85 160.813 74.4C160.413 75.95 160.021 77.4667 159.638 78.95C158.921 81.5667 157.621 82.875 155.738 82.875C154.904 82.875 154.096 82.525 153.313 81.825C152.513 81.125 152.113 80.525 152.113 80.025C152.113 79.8083 152.204 79.55 152.388 79.25C152.554 78.9667 152.713 78.825 152.863 78.825C153.046 78.825 153.238 78.9417 153.438 79.175C153.638 79.425 153.796 79.625 153.913 79.775ZM161.938 60.425C161.938 60.0917 162.071 59.775 162.338 59.475C162.604 59.175 162.879 59.025 163.163 59.025C163.446 59.025 163.771 59.3667 164.138 60.05C164.521 60.7167 164.713 61.275 164.713 61.725C164.713 61.8917 164.638 62.0417 164.488 62.175C164.338 62.3083 164.188 62.375 164.038 62.375C163.638 62.375 163.188 62.1333 162.688 61.65C162.188 61.1667 161.938 60.7583 161.938 60.425ZM174.735 68.125C174.735 69.0083 174.252 69.7333 173.285 70.3C172.335 70.85 171.252 71.125 170.035 71.125C168.835 71.125 167.744 70.9917 166.76 70.725C166.527 71.4583 166.41 72.1167 166.41 72.7C166.41 73.2667 166.585 73.7083 166.935 74.025C167.302 74.3417 167.894 74.5 168.71 74.5C169.544 74.5 170.394 74.3583 171.26 74.075C172.144 73.775 172.627 73.625 172.71 73.625C173.144 73.625 173.36 73.7917 173.36 74.125C173.36 74.575 172.852 75.0667 171.835 75.6C170.819 76.1167 169.827 76.375 168.86 76.375C167.56 76.375 166.502 75.9917 165.685 75.225C164.869 74.4417 164.46 73.4583 164.46 72.275C164.46 71.0917 164.777 69.8583 165.41 68.575C166.044 67.275 166.86 66.1833 167.86 65.3C168.86 64.4167 169.852 63.975 170.835 63.975C171.819 63.975 172.71 64.4417 173.51 65.375C174.327 66.3083 174.735 67.225 174.735 68.125ZM170.96 65.95C170.344 65.95 169.702 66.275 169.035 66.925C168.369 67.5583 167.802 68.35 167.335 69.3C168.002 69.45 168.76 69.525 169.61 69.525C170.46 69.525 171.202 69.3917 171.835 69.125C172.469 68.8417 172.785 68.475 172.785 68.025C172.785 67.575 172.577 67.1167 172.16 66.65C171.76 66.1833 171.36 65.95 170.96 65.95ZM180.04 76.375C179.074 76.375 178.165 76 177.315 75.25C176.465 74.4833 176.04 73.5833 176.04 72.55C176.04 71.5 176.39 70.2917 177.09 68.925C177.79 67.5583 178.69 66.3917 179.79 65.425C180.907 64.4583 181.99 63.975 183.04 63.975C183.724 63.975 184.324 64.2833 184.84 64.9C185.357 65.5167 185.615 66.0583 185.615 66.525C185.615 66.6583 185.574 66.775 185.49 66.875C185.407 66.9583 185.282 67 185.115 67C184.965 67 184.69 66.85 184.29 66.55C183.89 66.25 183.532 66.1 183.215 66.1C182.315 66.1 181.265 66.8917 180.065 68.475C178.865 70.0583 178.265 71.4417 178.265 72.625C178.265 73.1417 178.424 73.55 178.74 73.85C179.074 74.15 179.599 74.3 180.315 74.3C181.049 74.3 181.715 74.2167 182.315 74.05C182.932 73.8667 183.407 73.6917 183.74 73.525C184.074 73.3417 184.332 73.25 184.515 73.25C184.832 73.25 184.99 73.4083 184.99 73.725C184.99 74.2083 184.407 74.775 183.24 75.425C182.09 76.0583 181.024 76.375 180.04 76.375ZM189.948 73.875C189.948 74.1917 190.131 74.35 190.498 74.35C191.131 74.35 191.898 74.175 192.798 73.825C193.715 73.4583 194.223 73.275 194.323 73.275C194.623 73.275 194.773 73.4333 194.773 73.75C194.773 74.2333 194.273 74.7917 193.273 75.425C192.29 76.0583 191.39 76.375 190.573 76.375C189.773 76.375 189.106 76.1583 188.573 75.725C188.04 75.275 187.773 74.8167 187.773 74.35C187.773 73.8833 187.873 73.2917 188.073 72.575C188.273 71.8417 188.556 70.8833 188.923 69.7C189.306 68.5 189.606 67.5083 189.823 66.725C189.04 66.9083 188.515 67 188.248 67C187.981 67 187.715 66.8667 187.448 66.6C187.198 66.3167 187.073 66.05 187.073 65.8C187.073 65.4 188.156 65.0167 190.323 64.65C190.623 63.2667 190.773 62.0417 190.773 60.975C190.773 60.475 190.94 60.225 191.273 60.225C191.556 60.225 191.906 60.4083 192.323 60.775C192.74 61.125 192.948 61.525 192.948 61.975C192.948 62.425 192.806 63.2167 192.523 64.35C193.473 64.2667 194.231 64.225 194.798 64.225C195.798 64.225 196.298 64.4417 196.298 64.875C196.298 65.125 196.023 65.3333 195.473 65.5C194.94 65.6667 193.806 65.925 192.073 66.275C191.723 67.5917 191.281 69.1 190.748 70.8C190.215 72.4833 189.948 73.5083 189.948 73.875Z" fill="white"/>
<path d="M54.3345 18.75C52.3955 18.7883 51.0031 19.1585 50.0791 19.8222L37.4169 26.4727L30.3766 35.8663C28.893 38.1129 29.9471 42.4529 34.5799 39.6702L39.6552 33.1091C46.0969 27.6598 59.2406 30.1605 53.0071 41.0999C49.949 47.4312 51.3804 50.5203 55.3236 51.8223L57.1194 45.8994C60.2297 39.032 66.0337 37.7938 65.7995 32.2539L79.75 33.2368L79.6199 18.9287L54.3345 18.75ZM47.2942 31.9475C45.0298 31.9092 42.8045 32.8283 41.1908 34.1558L36.1025 40.7169C37.495 41.8019 38.9004 41.2148 40.2929 39.9C41.9326 40.7169 43.2079 39.4532 44.249 36.9258C44.6785 35.2025 45.3161 33.9899 47.2942 31.9475ZM36.9354 44.2017C36.8833 44.2017 36.8183 44.2017 36.7662 44.2145C36.3368 44.3038 35.8292 44.7506 35.4909 45.7718C35.1395 46.793 35.0614 48.2482 35.3738 49.8055C35.6861 51.35 36.3368 52.6648 37.0655 53.4817C37.7683 54.2859 38.4189 54.5157 38.8484 54.4263C39.2909 54.3497 39.7854 53.8902 40.1237 52.8818C40.4751 51.8606 40.5662 50.3927 40.2539 48.8481C39.9285 47.2908 39.2778 45.976 38.5621 45.1719C37.9374 44.457 37.3648 44.2017 36.9354 44.2017ZM47.6846 57.8345C46.6565 57.8473 45.3682 58.1664 44.1059 58.7664C42.6614 59.4684 41.5292 60.4385 40.9175 61.3321C40.3059 62.2129 40.2539 62.8766 40.4491 63.2723C40.6443 63.6553 41.2169 64.0255 42.31 64.0765C43.4031 64.1403 44.8737 63.8467 46.3182 63.1447C47.7627 62.4426 48.8949 61.4853 49.5065 60.5917C50.1181 59.711 50.1702 59.0344 49.975 58.6515C49.7798 58.2558 49.2072 57.8984 48.114 57.8473C47.9709 57.8345 47.8408 57.8345 47.6846 57.8345ZM34.9834 70.0377C34.3717 70.0504 33.8121 70.1398 33.3176 70.2802C32.2115 70.5993 31.5738 71.1737 31.3656 71.8503C31.1444 72.5396 31.3656 73.3565 32.1074 74.2373C32.8622 75.1053 34.1245 75.935 35.6861 76.3945C37.2347 76.8541 38.7443 76.8413 39.8634 76.5094C40.9826 76.1903 41.6203 75.6159 41.8285 74.9394C42.0367 74.2501 41.8285 73.4331 41.0737 72.5523C40.3319 71.6843 39.0696 70.8546 37.508 70.3951C36.6231 70.1398 35.7642 70.0249 34.9834 70.0377Z" fill="white"/>
</svg>
