<svg width="200" height="100" viewBox="0 0 200 100" fill="none" xmlns="http://www.w3.org/2000/svg">
<rect width="200" height="100" rx="25" fill="white"/>
<path d="M51.0135 76C65.3804 76 77.027 64.3594 77.027 50C77.027 35.6406 65.3804 24 51.0135 24C36.6466 24 25 35.6406 25 50C25 64.3594 36.6466 76 51.0135 76Z" fill="#FFB2B2"/>
<path d="M37.9324 55.2487C36.5758 56.0315 34.8801 55.0529 34.8801 53.4873V47.0225C34.8801 45.4569 36.5758 44.4784 37.9324 45.2612L43.534 48.4937C44.8905 49.2765 44.8905 51.2335 43.534 52.0163L37.9324 55.2487Z" fill="white"/>
<path d="M51.5337 54.1601C51.5337 54.7344 51.0679 55.2001 50.4932 55.2001C49.9185 55.2001 49.4526 54.7344 49.4526 54.1601V45.8401C49.4526 45.2657 49.9185 44.8001 50.4932 44.8001C51.0679 44.8001 51.5337 45.2657 51.5337 45.8401V54.1601Z" fill="#FFFDFD"/>
<path d="M55.1756 57.28C55.1756 57.8544 54.7097 58.32 54.135 58.32C53.5603 58.32 53.0945 57.8544 53.0945 57.28V42.7199C53.0945 42.1455 53.5603 41.6799 54.135 41.6799C54.7097 41.6799 55.1756 42.1455 55.1756 42.7199V57.28Z" fill="#FFFDFD"/>
<path d="M58.8175 53.12C58.8175 53.6943 58.3517 54.16 57.777 54.16C57.2023 54.16 56.7365 53.6943 56.7365 53.12V46.88C56.7365 46.3056 57.2023 45.84 57.777 45.84C58.3517 45.84 58.8175 46.3056 58.8175 46.88V53.12Z" fill="#FFFDFD"/>
<path d="M62.4594 55.7199C62.4594 56.2943 61.9935 56.7599 61.4188 56.7599C60.8442 56.7599 60.3783 56.2943 60.3783 55.7199V43.2399C60.3783 42.6656 60.8442 42.1999 61.4188 42.1999C61.9935 42.1999 62.4594 42.6656 62.4594 43.2399V55.7199Z" fill="#FFFDFD"/>
<path d="M66.1013 40.64C66.1013 40.0656 65.6355 39.6 65.0608 39.6C64.4861 39.6 64.0203 40.0656 64.0203 40.64V59.3599C64.0203 59.9343 64.4861 60.3999 65.0608 60.3999C65.6355 60.3999 66.1013 59.9343 66.1013 59.3599V40.64Z" fill="#FFFDFD"/>
<path d="M43.8306 61.9557C43.7969 61.9557 43.7718 61.9476 43.755 61.9316C43.7382 61.9155 43.7297 61.8928 43.7297 61.8635V60.9486C43.7297 60.9194 43.7382 60.8974 43.755 60.8827C43.7718 60.8667 43.7961 60.8586 43.828 60.8586C43.86 60.8586 43.8843 60.8667 43.9011 60.8827C43.9196 60.8974 43.9288 60.9194 43.9288 60.9486V61.1416L43.9011 61.1109C43.933 61.0291 43.9843 60.9661 44.0548 60.9223C44.127 60.8769 44.2127 60.8543 44.3118 60.8543C44.416 60.8543 44.5 60.8762 44.5638 60.9201C44.6293 60.9625 44.673 61.0291 44.6949 61.1198H44.657C44.6873 61.0378 44.7411 60.9735 44.8184 60.9267C44.8973 60.8784 44.9888 60.8543 45.093 60.8543C45.1854 60.8543 45.2609 60.8696 45.3198 60.9003C45.3803 60.931 45.4257 60.9778 45.4559 61.0408C45.4861 61.1022 45.5013 61.1805 45.5013 61.2756V61.8635C45.5013 61.8928 45.492 61.9155 45.4735 61.9316C45.4567 61.9476 45.4315 61.9557 45.3979 61.9557C45.3659 61.9557 45.3408 61.9476 45.3223 61.9316C45.3055 61.9155 45.2971 61.8928 45.2971 61.8635V61.2843C45.2971 61.1863 45.2778 61.1146 45.2392 61.0692C45.2005 61.0225 45.135 60.9991 45.0426 60.9991C44.9418 60.9991 44.862 61.0298 44.8032 61.0912C44.7461 61.1512 44.7175 61.2331 44.7175 61.337V61.8635C44.7175 61.8928 44.7083 61.9155 44.6898 61.9316C44.673 61.9476 44.6479 61.9557 44.6142 61.9557C44.5823 61.9557 44.5571 61.9476 44.5386 61.9316C44.5218 61.9155 44.5135 61.8928 44.5135 61.8635V61.2843C44.5135 61.1863 44.4933 61.1146 44.4529 61.0692C44.4144 61.0225 44.3496 60.9991 44.2589 60.9991C44.1581 60.9991 44.0783 61.0298 44.0195 61.0912C43.9624 61.1512 43.9338 61.2331 43.9338 61.337V61.8635C43.9338 61.925 43.8994 61.9557 43.8306 61.9557ZM46.6943 61.96C46.5951 61.96 46.5128 61.9447 46.4473 61.914C46.3835 61.8818 46.3347 61.8342 46.3012 61.7714C46.2692 61.7085 46.2532 61.6303 46.2532 61.5366V60.9486C46.2532 60.9179 46.2617 60.8952 46.2785 60.8806C46.297 60.866 46.3221 60.8586 46.3541 60.8586C46.3876 60.8586 46.4129 60.866 46.4297 60.8806C46.4482 60.8952 46.4574 60.9179 46.4574 60.9486V61.5345C46.4574 61.628 46.4792 61.6983 46.5229 61.7451C46.5682 61.7904 46.6388 61.8131 46.7346 61.8131C46.8388 61.8131 46.9236 61.7824 46.989 61.721C47.0546 61.6594 47.0873 61.579 47.0873 61.4796V60.9486C47.0873 60.9179 47.0958 60.8952 47.1125 60.8806C47.1311 60.866 47.157 60.8586 47.1907 60.8586C47.2225 60.8586 47.2469 60.866 47.2637 60.8806C47.2823 60.8952 47.2915 60.9179 47.2915 60.9486V61.8635C47.2915 61.925 47.2587 61.9557 47.1932 61.9557C47.1613 61.9557 47.136 61.9476 47.1176 61.9316C47.1007 61.9155 47.0924 61.8928 47.0924 61.8635V61.6639L47.1252 61.6946C47.0916 61.7809 47.0361 61.8468 46.9588 61.8921C46.8832 61.9374 46.795 61.96 46.6943 61.96ZM48.4646 61.96C48.389 61.96 48.3126 61.952 48.2353 61.9359C48.1597 61.9199 48.0891 61.8921 48.0235 61.8525C48.0069 61.8423 47.9951 61.8306 47.9883 61.8175C47.9816 61.8028 47.9791 61.7889 47.9807 61.7758C47.9842 61.7611 47.9909 61.7487 48.001 61.7385C48.0127 61.7282 48.0261 61.7224 48.0412 61.721C48.058 61.718 48.0765 61.721 48.0967 61.7297C48.1622 61.7648 48.2252 61.7897 48.2856 61.8042C48.3478 61.8175 48.4091 61.8241 48.4696 61.8241C48.5653 61.8241 48.6377 61.8087 48.6863 61.778C48.735 61.7472 48.7594 61.7056 48.7594 61.6529C48.7594 61.612 48.7435 61.5797 48.7115 61.5563C48.6796 61.5315 48.6292 61.5125 48.5603 61.4993L48.331 61.4555C48.2252 61.4364 48.1462 61.4035 48.0942 61.3567C48.0438 61.3099 48.0186 61.2492 48.0186 61.1746C48.0186 61.1088 48.0379 61.0525 48.0765 61.0057C48.1168 60.9574 48.1731 60.9201 48.2453 60.8937C48.3176 60.8674 48.4016 60.8543 48.4973 60.8543C48.5712 60.8543 48.641 60.863 48.7064 60.8806C48.7737 60.8967 48.8341 60.923 48.8879 60.9595C48.9047 60.9698 48.9156 60.9822 48.9207 60.9968C48.9274 61.0101 48.9282 61.0239 48.9231 61.0385C48.9199 61.0517 48.9123 61.0634 48.9006 61.0736C48.8888 61.0825 48.8745 61.0875 48.8577 61.0891C48.8409 61.0905 48.8232 61.0861 48.8047 61.0758C48.7544 61.0466 48.7032 61.0254 48.6511 61.0122C48.599 60.9975 48.5477 60.9903 48.4973 60.9903C48.4032 60.9903 48.3319 61.0064 48.2832 61.0385C48.2345 61.0708 48.21 61.1132 48.21 61.1658C48.21 61.2067 48.2252 61.2404 48.2554 61.2667C48.2856 61.2931 48.3327 61.3121 48.3965 61.3238L48.6259 61.3655C48.735 61.386 48.8165 61.4188 48.8702 61.4642C48.9257 61.5081 48.9535 61.568 48.9535 61.6441C48.9535 61.7407 48.9089 61.8175 48.8199 61.8745C48.7308 61.9316 48.6124 61.96 48.4646 61.96ZM49.7433 61.9513C49.7097 61.9513 49.6845 61.9433 49.6677 61.9272C49.6509 61.9096 49.6425 61.8855 49.6425 61.8548V60.9574C49.6425 60.9267 49.6509 60.9033 49.6677 60.8871C49.6845 60.871 49.7097 60.863 49.7433 60.863C49.7752 60.863 49.8004 60.871 49.8189 60.8871C49.8374 60.9033 49.8465 60.9267 49.8465 60.9574V61.8548C49.8465 61.8855 49.8374 61.9096 49.8189 61.9272C49.8021 61.9433 49.7769 61.9513 49.7433 61.9513ZM49.7433 60.6173C49.7013 60.6173 49.6685 60.6078 49.645 60.5888C49.6215 60.5683 49.6097 60.5413 49.6097 60.5076C49.6097 60.4724 49.6215 60.4462 49.645 60.4286C49.6685 60.4096 49.7013 60.4 49.7433 60.4C49.7869 60.4 49.8197 60.4096 49.8416 60.4286C49.8651 60.4462 49.8769 60.4724 49.8769 60.5076C49.8769 60.5413 49.8651 60.5683 49.8416 60.5888C49.8197 60.6078 49.7869 60.6173 49.7433 60.6173ZM51.1252 61.96C51.0026 61.96 50.8967 61.9366 50.8077 61.8899C50.7187 61.8431 50.6498 61.778 50.6011 61.6946C50.5541 61.6097 50.5306 61.5118 50.5306 61.4005C50.5306 61.3157 50.544 61.2397 50.5708 61.1724C50.5977 61.1051 50.6372 61.0481 50.6893 61.0012C50.7414 60.953 50.8035 60.9164 50.8758 60.8916C50.9496 60.8667 51.0329 60.8543 51.1252 60.8543C51.1857 60.8543 51.2488 60.8623 51.3143 60.8784C51.3797 60.8944 51.4394 60.9223 51.4931 60.9618C51.5099 60.972 51.5208 60.9844 51.5259 60.9991C51.531 61.0137 51.531 61.0284 51.5259 61.0429C51.5208 61.0561 51.5125 61.0678 51.5007 61.0781C51.489 61.0868 51.4738 61.0919 51.4554 61.0934C51.4385 61.0949 51.4209 61.0898 51.4024 61.0781C51.3587 61.0488 51.3143 61.0284 51.2689 61.0166C51.2235 61.0049 51.1799 60.9991 51.1379 60.9991C51.0723 60.9991 51.0152 61.0085 50.9665 61.0275C50.9178 61.0451 50.8766 61.0708 50.843 61.1044C50.8094 61.138 50.7834 61.1797 50.7649 61.2294C50.7481 61.2791 50.7397 61.337 50.7397 61.4028C50.7397 61.53 50.7741 61.631 50.843 61.7056C50.9119 61.7787 51.0102 61.8152 51.1379 61.8152C51.1799 61.8152 51.2227 61.8094 51.2664 61.7977C51.3117 61.786 51.3571 61.7655 51.4024 61.7363C51.4209 61.7246 51.4385 61.7194 51.4554 61.721C51.4722 61.7224 51.4864 61.7282 51.4982 61.7385C51.5099 61.7472 51.5176 61.759 51.5208 61.7735C51.5259 61.7882 51.5259 61.8028 51.5208 61.8175C51.5158 61.8306 51.5049 61.8423 51.488 61.8525C51.4343 61.8906 51.3755 61.9183 51.3117 61.9359C51.2478 61.952 51.1857 61.96 51.1252 61.96ZM52.635 61.96C52.5156 61.96 52.4124 61.9374 52.325 61.8921C52.2377 61.8468 52.1696 61.7831 52.1209 61.7011C52.0739 61.6177 52.0504 61.5198 52.0504 61.4072C52.0504 61.3223 52.0638 61.2463 52.0907 61.179C52.1175 61.1102 52.157 61.0517 52.2091 61.0034C52.2612 60.9551 52.3224 60.9186 52.393 60.8937C52.4653 60.8674 52.546 60.8543 52.635 60.8543C52.7542 60.8543 52.8576 60.8769 52.9449 60.9223C53.0323 60.9677 53.0994 61.032 53.1464 61.1153C53.1952 61.1973 53.2196 61.2946 53.2196 61.4072C53.2196 61.492 53.2062 61.568 53.1792 61.6353C53.1523 61.7027 53.1129 61.7611 53.0608 61.8109C53.0088 61.8592 52.9466 61.8965 52.8744 61.9228C52.8038 61.9476 52.724 61.96 52.635 61.96ZM52.635 61.8175C52.7106 61.8175 52.7769 61.8014 52.834 61.7692C52.8912 61.737 52.9348 61.6902 52.965 61.6287C52.997 61.5673 53.013 61.4935 53.013 61.4072C53.013 61.274 52.9785 61.1724 52.9096 61.1022C52.8424 61.032 52.7509 60.9968 52.635 60.9968C52.5577 60.9968 52.4905 61.013 52.4333 61.0451C52.3779 61.0758 52.3342 61.1219 52.3023 61.1833C52.2721 61.2433 52.257 61.318 52.257 61.4072C52.257 61.5388 52.2914 61.6404 52.3603 61.7121C52.4292 61.7824 52.5207 61.8175 52.635 61.8175ZM54.0075 61.9557C53.9739 61.9557 53.9478 61.9476 53.9293 61.9316C53.9126 61.9155 53.9041 61.8928 53.9041 61.8635V60.9486C53.9041 60.9194 53.9126 60.8974 53.9293 60.8827C53.9461 60.8667 53.9704 60.8586 54.0024 60.8586C54.0343 60.8586 54.0587 60.8667 54.0754 60.8827C54.094 60.8974 54.1032 60.9194 54.1032 60.9486V61.1263H54.078C54.1048 61.0401 54.1561 60.9735 54.2317 60.9267C54.3073 60.8799 54.4005 60.855 54.5114 60.852C54.5366 60.8506 54.5568 60.8557 54.5719 60.8674C54.587 60.8777 54.5954 60.896 54.5971 60.9223C54.5988 60.9471 54.5921 60.9668 54.5769 60.9815C54.5619 60.9961 54.5383 61.0049 54.5064 61.0078L54.466 61.0122C54.3519 61.021 54.2637 61.0532 54.2015 61.1088C54.141 61.1629 54.1107 61.2375 54.1107 61.3325V61.8635C54.1107 61.8928 54.1015 61.9155 54.0831 61.9316C54.0663 61.9476 54.0411 61.9557 54.0075 61.9557ZM55.7223 61.96C55.5929 61.96 55.4812 61.9382 55.3872 61.8942C55.2948 61.8489 55.2226 61.7852 55.1705 61.7034C55.1201 61.6214 55.0949 61.5235 55.0949 61.4094C55.0949 61.2981 55.1201 61.2016 55.1705 61.1198C55.2208 61.0364 55.2897 60.9713 55.3771 60.9244C55.4661 60.8777 55.5686 60.8543 55.6845 60.8543C55.7668 60.8543 55.8408 60.8667 55.9063 60.8916C55.9718 60.915 56.0273 60.9493 56.0726 60.9947C56.1196 61.0401 56.1549 61.0949 56.1784 61.1592C56.2037 61.2236 56.2162 61.296 56.2162 61.3764C56.2162 61.3998 56.2087 61.4174 56.1935 61.4291C56.1784 61.4394 56.1566 61.4445 56.1281 61.4445H55.2511V61.3281H56.0802L56.0399 61.3567C56.0399 61.2777 56.0263 61.2112 55.9995 61.157C55.9726 61.1015 55.9331 61.0591 55.8811 61.0298C55.8307 61.0005 55.7668 60.9859 55.6896 60.9859C55.6039 60.9859 55.5309 61.0034 55.4703 61.0385C55.4115 61.0722 55.3671 61.1198 55.3368 61.1812C55.3065 61.2411 55.2915 61.3114 55.2915 61.3918V61.405C55.2915 61.5395 55.3284 61.642 55.4023 61.7121C55.4779 61.7824 55.5846 61.8175 55.7223 61.8175C55.7794 61.8175 55.8358 61.8109 55.8911 61.7977C55.9483 61.7845 56.0038 61.7627 56.0575 61.7318C56.081 61.7187 56.1019 61.7128 56.1205 61.7144C56.1406 61.7144 56.1566 61.7194 56.1684 61.7297C56.1801 61.7385 56.1877 61.7501 56.1911 61.7648C56.196 61.778 56.1944 61.7926 56.186 61.8087C56.1793 61.8248 56.165 61.8386 56.1431 61.8504C56.0877 61.8855 56.0222 61.9125 55.9466 61.9316C55.871 61.9506 55.7962 61.96 55.7223 61.96Z" fill="white"/>
<path d="M86.7849 50.0989C86.5001 50.0989 86.2813 50.0175 86.1287 49.8548C85.9761 49.6921 85.8998 49.4684 85.8998 49.1837V40.0164C85.8998 39.7215 85.9812 39.4978 86.144 39.3453C86.3067 39.1826 86.5306 39.1012 86.8155 39.1012C87.0698 39.1012 87.2682 39.1521 87.4106 39.2537C87.5633 39.3453 87.7006 39.508 87.8227 39.7419L91.5922 46.7126H91.1039L94.8734 39.7419C94.9955 39.508 95.1277 39.3453 95.2702 39.2537C95.4126 39.1521 95.611 39.1012 95.8654 39.1012C96.1503 39.1012 96.369 39.1826 96.5216 39.3453C96.6742 39.4978 96.7505 39.7215 96.7505 40.0164V49.1837C96.7505 49.4684 96.6742 49.6921 96.5216 49.8548C96.3792 50.0175 96.1604 50.0989 95.8654 50.0989C95.5805 50.0989 95.3618 50.0175 95.2091 49.8548C95.0565 49.6921 94.9802 49.4684 94.9802 49.1837V42.1214H95.316L92.1111 47.9634C92.0094 48.1363 91.9025 48.2634 91.7906 48.3447C91.6787 48.4261 91.5261 48.4668 91.3328 48.4668C91.1395 48.4668 90.9818 48.4261 90.8597 48.3447C90.7376 48.2532 90.6308 48.1261 90.5392 47.9634L87.3038 42.1061H87.6701V49.1837C87.6701 49.4684 87.5938 49.6921 87.4412 49.8548C87.2987 50.0175 87.08 50.0989 86.7849 50.0989ZM105.452 50.1294C104.831 50.1294 104.318 50.0175 103.911 49.7938C103.504 49.5599 103.198 49.2142 102.995 48.7566C102.802 48.299 102.705 47.7295 102.705 47.0482V43.3569C102.705 43.0315 102.786 42.7925 102.949 42.64C103.112 42.4773 103.346 42.3959 103.651 42.3959C103.956 42.3959 104.19 42.4773 104.353 42.64C104.526 42.7925 104.613 43.0315 104.613 43.3569V47.0787C104.613 47.6075 104.719 47.999 104.933 48.2532C105.147 48.5074 105.488 48.6345 105.956 48.6345C106.464 48.6345 106.881 48.4617 107.207 48.1159C107.533 47.76 107.695 47.2922 107.695 46.7126V43.3569C107.695 43.0315 107.777 42.7925 107.94 42.64C108.102 42.4773 108.336 42.3959 108.642 42.3959C108.947 42.3959 109.181 42.4773 109.344 42.64C109.517 42.7925 109.603 43.0315 109.603 43.3569V49.1226C109.603 49.7735 109.293 50.0989 108.672 50.0989C108.377 50.0989 108.148 50.0175 107.985 49.8548C107.823 49.6819 107.741 49.4379 107.741 49.1226V47.9634L107.955 48.421C107.741 48.9701 107.416 49.3921 106.978 49.687C106.551 49.9819 106.042 50.1294 105.452 50.1294ZM118.135 50.1294C117.698 50.1294 117.235 50.0836 116.747 49.9921C116.258 49.9006 115.821 49.7429 115.434 49.5192C115.272 49.4175 115.155 49.3006 115.083 49.1684C115.022 49.026 114.997 48.8888 115.007 48.7566C115.027 48.6142 115.078 48.4922 115.16 48.3905C115.251 48.2888 115.363 48.2227 115.495 48.1922C115.638 48.1617 115.79 48.1871 115.953 48.2685C116.36 48.4617 116.741 48.5989 117.098 48.6803C117.454 48.7515 117.805 48.7871 118.151 48.7871C118.639 48.7871 119 48.7057 119.234 48.543C119.478 48.3701 119.6 48.1464 119.6 47.8719C119.6 47.638 119.519 47.46 119.356 47.338C119.204 47.2058 118.97 47.1092 118.654 47.0482L117.128 46.7584C116.497 46.6364 116.014 46.4076 115.678 46.072C115.353 45.7262 115.19 45.2839 115.19 44.7449C115.19 44.2568 115.322 43.8348 115.587 43.4789C115.861 43.123 116.238 42.8484 116.716 42.6552C117.194 42.462 117.744 42.3654 118.364 42.3654C118.812 42.3654 119.229 42.4163 119.616 42.518C120.012 42.6095 120.394 42.7569 120.76 42.9603C120.913 43.0417 121.015 43.1484 121.065 43.2806C121.127 43.4128 121.142 43.5501 121.111 43.6925C121.081 43.8247 121.02 43.9467 120.928 44.0585C120.837 44.1602 120.72 44.2263 120.577 44.2568C120.445 44.2772 120.292 44.2467 120.119 44.1653C119.804 44.0026 119.499 43.8857 119.204 43.8145C118.919 43.7433 118.644 43.7077 118.379 43.7077C117.881 43.7077 117.51 43.7942 117.265 43.967C117.031 44.1399 116.914 44.3687 116.914 44.6534C116.914 44.867 116.986 45.0449 117.128 45.1873C117.27 45.3297 117.489 45.4263 117.784 45.4771L119.31 45.7669C119.972 45.8889 120.47 46.1127 120.806 46.4381C121.152 46.7635 121.325 47.2007 121.325 47.7498C121.325 48.4922 121.035 49.0769 120.455 49.504C119.875 49.9209 119.102 50.1294 118.135 50.1294ZM127.618 50.0836C127.312 50.0836 127.078 49.9921 126.916 49.809C126.753 49.626 126.671 49.3718 126.671 49.0464V43.4484C126.671 43.1128 126.753 42.8586 126.916 42.6857C127.078 42.5027 127.312 42.4112 127.618 42.4112C127.923 42.4112 128.157 42.5027 128.32 42.6857C128.493 42.8586 128.579 43.1128 128.579 43.4484V49.0464C128.579 49.3718 128.498 49.626 128.335 49.809C128.172 49.9921 127.933 50.0836 127.618 50.0836ZM127.618 40.9926C127.262 40.9926 126.982 40.9062 126.778 40.7333C126.585 40.5503 126.488 40.3011 126.488 39.9859C126.488 39.6605 126.585 39.4114 126.778 39.2385C126.982 39.0656 127.262 38.9792 127.618 38.9792C127.984 38.9792 128.264 39.0656 128.457 39.2385C128.65 39.4114 128.747 39.6605 128.747 39.9859C128.747 40.3011 128.65 40.5503 128.457 40.7333C128.264 40.9062 127.984 40.9926 127.618 40.9926ZM137.825 50.1294C137.042 50.1294 136.36 49.9717 135.78 49.6565C135.2 49.3311 134.753 48.8735 134.437 48.2837C134.122 47.6939 133.964 47.0024 133.964 46.2093C133.964 45.6093 134.051 45.0754 134.224 44.6077C134.407 44.1297 134.666 43.7281 135.002 43.4027C135.338 43.0671 135.745 42.8129 136.223 42.64C136.701 42.4569 137.235 42.3654 137.825 42.3654C138.161 42.3654 138.522 42.4112 138.909 42.5027C139.306 42.5942 139.677 42.7468 140.023 42.9603C140.186 43.062 140.293 43.184 140.343 43.3264C140.394 43.4687 140.405 43.6162 140.374 43.7687C140.343 43.9111 140.277 44.0382 140.176 44.1501C140.084 44.2518 139.967 44.3179 139.825 44.3484C139.682 44.3687 139.524 44.3331 139.351 44.2416C139.128 44.1094 138.899 44.0128 138.665 43.9518C138.431 43.8806 138.207 43.845 137.993 43.845C137.657 43.845 137.362 43.9009 137.108 44.0128C136.854 44.1145 136.635 44.267 136.452 44.4704C136.279 44.6636 136.147 44.9076 136.055 45.2025C135.963 45.4974 135.918 45.8381 135.918 46.2245C135.918 46.977 136.096 47.5719 136.452 48.0092C136.818 48.4362 137.332 48.6498 137.993 48.6498C138.207 48.6498 138.426 48.6193 138.649 48.5583C138.883 48.4973 139.117 48.4007 139.351 48.2685C139.524 48.1769 139.677 48.1464 139.809 48.1769C139.952 48.2074 140.069 48.2786 140.16 48.3905C140.252 48.4922 140.308 48.6193 140.328 48.7718C140.349 48.9142 140.328 49.0566 140.267 49.1989C140.216 49.3413 140.115 49.4582 139.962 49.5497C139.626 49.7531 139.27 49.9006 138.894 49.9921C138.517 50.0836 138.161 50.1294 137.825 50.1294ZM148.644 50.1294C147.87 50.1294 147.199 49.9717 146.629 49.6565C146.059 49.3413 145.617 48.8938 145.301 48.3142C144.986 47.7244 144.828 47.0329 144.828 46.2398C144.828 45.6398 144.915 45.1059 145.088 44.6382C145.271 44.1602 145.53 43.7535 145.866 43.4179C146.202 43.0722 146.604 42.8129 147.072 42.64C147.54 42.4569 148.064 42.3654 148.644 42.3654C149.417 42.3654 150.088 42.523 150.658 42.8383C151.228 43.1535 151.67 43.6009 151.986 44.1806C152.301 44.7602 152.459 45.4466 152.459 46.2398C152.459 46.8397 152.367 47.3787 152.184 47.8566C152.011 48.3346 151.757 48.7464 151.421 49.0921C151.085 49.4277 150.683 49.687 150.215 49.8701C149.747 50.0429 149.223 50.1294 148.644 50.1294ZM148.644 48.6803C149.02 48.6803 149.351 48.5888 149.636 48.4057C149.92 48.2227 150.139 47.9532 150.292 47.5973C150.455 47.2312 150.536 46.7787 150.536 46.2398C150.536 45.4263 150.363 44.8212 150.017 44.4246C149.671 44.0179 149.213 43.8145 148.644 43.8145C148.267 43.8145 147.936 43.906 147.652 44.089C147.367 44.2619 147.143 44.5314 146.98 44.8975C146.827 45.2534 146.751 45.7008 146.751 46.2398C146.751 47.0431 146.924 47.6532 147.27 48.0702C147.616 48.4769 148.074 48.6803 148.644 48.6803ZM158.826 50.0989C158.51 50.0989 158.266 50.0175 158.093 49.8548C157.931 49.6819 157.849 49.4379 157.849 49.1226V43.3569C157.849 43.0417 157.931 42.8027 158.093 42.64C158.256 42.4773 158.485 42.3959 158.78 42.3959C159.075 42.3959 159.304 42.4773 159.467 42.64C159.63 42.8027 159.711 43.0417 159.711 43.3569V44.3178H159.558C159.701 43.7077 159.981 43.245 160.398 42.9298C160.815 42.6146 161.369 42.4264 162.061 42.3654C162.275 42.3451 162.443 42.401 162.565 42.5332C162.697 42.6552 162.773 42.8484 162.794 43.1128C162.814 43.3671 162.753 43.5755 162.611 43.7382C162.478 43.8908 162.275 43.9823 162 44.0128L161.664 44.0433C161.044 44.1043 160.576 44.2975 160.26 44.6229C159.945 44.9382 159.787 45.3856 159.787 45.9652V49.1226C159.787 49.4379 159.706 49.6819 159.543 49.8548C159.38 50.0175 159.141 50.0989 158.826 50.0989ZM171.2 50.1294C170.355 50.1294 169.628 49.9717 169.017 49.6565C168.407 49.3413 167.934 48.8938 167.598 48.3142C167.272 47.7346 167.11 47.0482 167.11 46.255C167.11 45.4822 167.267 44.806 167.583 44.2263C167.908 43.6467 168.351 43.1942 168.911 42.8688C169.48 42.5332 170.126 42.3654 170.849 42.3654C171.378 42.3654 171.851 42.4519 172.268 42.6247C172.695 42.7976 173.056 43.0467 173.352 43.3721C173.657 43.6975 173.886 44.0941 174.038 44.5619C174.201 45.0195 174.282 45.5381 174.282 46.1177C174.282 46.3008 174.216 46.4431 174.084 46.5448C173.962 46.6364 173.784 46.6821 173.55 46.6821H168.651V45.5839H172.939L172.695 45.8127C172.695 45.3449 172.624 44.9534 172.482 44.6382C172.349 44.3229 172.151 44.084 171.886 43.9213C171.632 43.7484 171.312 43.662 170.925 43.662C170.498 43.662 170.131 43.7636 169.826 43.967C169.531 44.1602 169.302 44.4399 169.139 44.806C168.987 45.1619 168.911 45.589 168.911 46.0872V46.194C168.911 47.0279 169.104 47.6532 169.49 48.0702C169.887 48.4769 170.467 48.6803 171.23 48.6803C171.495 48.6803 171.79 48.6498 172.115 48.5888C172.451 48.5176 172.767 48.4007 173.062 48.238C173.275 48.1159 173.463 48.0651 173.626 48.0854C173.789 48.0956 173.916 48.1515 174.008 48.2532C174.109 48.3549 174.171 48.482 174.191 48.6345C174.211 48.7769 174.181 48.9244 174.099 49.0769C174.028 49.2294 173.901 49.3616 173.718 49.4735C173.362 49.6972 172.95 49.865 172.482 49.9768C172.024 50.0785 171.596 50.1294 171.2 50.1294Z" fill="#404040"/>
<path d="M87.7794 62.3376C87.4585 62.3376 87.1191 62.304 86.761 62.2369C86.4028 62.1698 86.082 62.0542 85.7985 61.8902C85.6791 61.8156 85.5933 61.7298 85.5411 61.6329C85.4963 61.5285 85.4776 61.4278 85.4851 61.3309C85.5 61.2264 85.5373 61.137 85.5971 61.0624C85.6642 60.9879 85.7462 60.9394 85.8433 60.917C85.9477 60.8946 86.0596 60.9132 86.179 60.9729C86.4774 61.1146 86.7572 61.2153 87.0184 61.2749C87.2795 61.3271 87.5369 61.3532 87.7906 61.3532C88.1487 61.3532 88.4136 61.2936 88.5852 61.1743C88.7643 61.0475 88.8538 60.8834 88.8538 60.6821C88.8538 60.5106 88.7941 60.3801 88.6747 60.2906C88.5628 60.1937 88.3912 60.1228 88.1599 60.0781L87.0408 59.8655C86.5782 59.7761 86.2238 59.6083 85.9776 59.3622C85.7388 59.1087 85.6194 58.7843 85.6194 58.389C85.6194 58.0311 85.7164 57.7216 85.9104 57.4606C86.1119 57.1996 86.3879 56.9982 86.7386 56.8566C87.0892 56.7149 87.4921 56.644 87.9473 56.644C88.2755 56.644 88.5814 56.6814 88.865 56.7559C89.156 56.823 89.4358 56.9311 89.7044 57.0803C89.8163 57.14 89.8909 57.2183 89.9282 57.3152C89.973 57.4121 89.9842 57.5128 89.9618 57.6172C89.9394 57.7141 89.8946 57.8036 89.8275 57.8857C89.7603 57.9602 89.6745 58.0087 89.5701 58.0311C89.473 58.046 89.3611 58.0237 89.2343 57.964C89.003 57.8447 88.7791 57.7589 88.5628 57.7067C88.3539 57.6545 88.1524 57.6284 87.9585 57.6284C87.5928 57.6284 87.3206 57.6917 87.1415 57.8185C86.9699 57.9453 86.8841 58.1131 86.8841 58.3219C86.8841 58.4785 86.9363 58.609 87.0408 58.7134C87.1452 58.8178 87.3056 58.8886 87.522 58.9259L88.6412 59.1385C89.1261 59.228 89.4917 59.392 89.7379 59.6306C89.9916 59.8693 90.1185 60.1899 90.1185 60.5926C90.1185 61.137 89.9058 61.5658 89.4805 61.879C89.0553 62.1848 88.4881 62.3376 87.7794 62.3376ZM96.0643 62.3376C95.445 62.3376 94.9116 62.222 94.4639 61.9908C94.0163 61.7597 93.6693 61.4315 93.4231 61.0065C93.1843 60.5814 93.065 60.0781 93.065 59.4964C93.065 58.9297 93.1806 58.4338 93.4119 58.0087C93.6506 57.5836 93.9752 57.2518 94.3856 57.0132C94.8034 56.7671 95.2772 56.644 95.8069 56.644C96.1949 56.644 96.5418 56.7074 96.8478 56.8342C97.1611 56.961 97.4259 57.1436 97.6424 57.3823C97.8662 57.621 98.0341 57.9118 98.146 58.2548C98.2653 58.5904 98.325 58.9707 98.325 59.3957C98.325 59.53 98.2765 59.6344 98.1795 59.7089C98.09 59.7761 97.9594 59.8096 97.7878 59.8096H94.1953V59.0042H97.3402L97.1611 59.172C97.1611 58.829 97.1088 58.5419 97.0044 58.3107C96.9074 58.0796 96.7619 57.9043 96.568 57.785C96.3814 57.6582 96.1463 57.5948 95.8629 57.5948C95.5495 57.5948 95.2809 57.6694 95.0571 57.8185C94.8407 57.9602 94.6728 58.1653 94.5535 58.4338C94.4416 58.6948 94.3856 59.008 94.3856 59.3734V59.4517C94.3856 60.0631 94.5273 60.5217 94.8109 60.8275C95.1019 61.1258 95.5271 61.2749 96.0867 61.2749C96.2806 61.2749 96.497 61.2526 96.7358 61.2078C96.982 61.1557 97.2133 61.0698 97.4297 60.9506C97.5864 60.8611 97.7244 60.8238 97.8438 60.8387C97.9631 60.8461 98.0564 60.8872 98.1236 60.9617C98.1982 61.0363 98.2429 61.1295 98.2579 61.2414C98.2727 61.3458 98.2504 61.4539 98.1907 61.5658C98.1384 61.6776 98.0452 61.7745 97.9109 61.8566C97.6498 62.0206 97.3476 62.1437 97.0044 62.2257C96.6687 62.3003 96.3553 62.3376 96.0643 62.3376ZM103.361 62.3376C102.966 62.3376 102.611 62.2631 102.298 62.1139C101.992 61.9573 101.75 61.7485 101.57 61.4875C101.399 61.2264 101.313 60.932 101.313 60.6038C101.313 60.2011 101.417 59.8841 101.626 59.653C101.835 59.4143 102.175 59.2429 102.645 59.1385C103.115 59.034 103.745 58.9819 104.536 58.9819H105.096V59.7872H104.547C104.085 59.7872 103.716 59.8096 103.439 59.8544C103.163 59.8991 102.966 59.9774 102.846 60.0893C102.734 60.1937 102.678 60.3428 102.678 60.5367C102.678 60.7828 102.764 60.9841 102.936 61.1407C103.107 61.2973 103.346 61.3756 103.652 61.3756C103.898 61.3756 104.115 61.3197 104.301 61.2078C104.495 61.0886 104.648 60.9282 104.76 60.7268C104.872 60.5255 104.928 60.2944 104.928 60.0333V58.747C104.928 58.3741 104.846 58.1056 104.682 57.9416C104.518 57.7776 104.242 57.6955 103.854 57.6955C103.637 57.6955 103.402 57.7216 103.149 57.7738C102.902 57.826 102.641 57.9155 102.365 58.0423C102.223 58.1094 102.097 58.128 101.985 58.0982C101.88 58.0684 101.798 58.0087 101.738 57.9192C101.679 57.8223 101.649 57.7179 101.649 57.606C101.649 57.4942 101.679 57.3861 101.738 57.2816C101.798 57.1698 101.899 57.0877 102.041 57.0355C102.384 56.8939 102.712 56.7932 103.025 56.7335C103.346 56.6738 103.637 56.644 103.898 56.644C104.436 56.644 104.876 56.7261 105.219 56.8901C105.57 57.0542 105.831 57.304 106.002 57.6396C106.174 57.9677 106.26 58.3928 106.26 58.9148V61.5993C106.26 61.8305 106.204 62.0094 106.092 62.1363C105.98 62.2555 105.82 62.3152 105.611 62.3152C105.402 62.3152 105.238 62.2555 105.118 62.1363C105.006 62.0094 104.95 61.8305 104.95 61.5993V61.0624H105.04C104.988 61.3235 104.883 61.5508 104.727 61.7447C104.577 61.9311 104.387 62.0766 104.156 62.181C103.924 62.2854 103.66 62.3376 103.361 62.3376ZM110.522 62.3152C110.291 62.3152 110.112 62.2555 109.985 62.1363C109.866 62.0094 109.806 61.8305 109.806 61.5993V57.3711C109.806 57.14 109.866 56.9647 109.985 56.8454C110.104 56.7261 110.272 56.6664 110.489 56.6664C110.705 56.6664 110.873 56.7261 110.992 56.8454C111.112 56.9647 111.171 57.14 111.171 57.3711V58.0758H111.06C111.164 57.6284 111.369 57.2891 111.675 57.0579C111.981 56.8268 112.388 56.6888 112.895 56.644C113.052 56.6291 113.175 56.6702 113.264 56.7671C113.361 56.8566 113.417 56.9982 113.432 57.1921C113.447 57.3785 113.402 57.5315 113.298 57.6508C113.201 57.7626 113.052 57.8297 112.85 57.8521L112.604 57.8745C112.149 57.9192 111.806 58.0609 111.574 58.2995C111.343 58.5307 111.227 58.8588 111.227 59.2839V61.5993C111.227 61.8305 111.168 62.0094 111.048 62.1363C110.929 62.2555 110.754 62.3152 110.522 62.3152ZM118.757 62.3376C118.182 62.3376 117.683 62.222 117.257 61.9908C116.832 61.7522 116.503 61.4166 116.272 60.9841C116.042 60.5516 115.926 60.0445 115.926 59.4629C115.926 59.0228 115.989 58.6313 116.116 58.2883C116.25 57.9378 116.44 57.6433 116.687 57.4047C116.933 57.1586 117.231 56.9722 117.582 56.8454C117.933 56.7112 118.325 56.644 118.757 56.644C119.003 56.644 119.268 56.6776 119.552 56.7447C119.843 56.8118 120.115 56.9237 120.369 57.0803C120.488 57.1548 120.566 57.2443 120.604 57.3487C120.641 57.4532 120.648 57.5613 120.626 57.6731C120.604 57.7776 120.555 57.8707 120.481 57.9528C120.413 58.0273 120.328 58.0758 120.223 58.0982C120.118 58.1131 120.003 58.087 119.876 58.0199C119.712 57.923 119.544 57.8521 119.373 57.8074C119.201 57.7552 119.037 57.7291 118.88 57.7291C118.634 57.7291 118.417 57.77 118.231 57.8521C118.045 57.9266 117.884 58.0385 117.75 58.1877C117.623 58.3293 117.526 58.5083 117.459 58.7246C117.392 58.9409 117.358 59.1906 117.358 59.474C117.358 60.0259 117.488 60.4621 117.75 60.7828C118.018 61.096 118.395 61.2526 118.88 61.2526C119.037 61.2526 119.198 61.2302 119.361 61.1855C119.533 61.1407 119.704 61.0698 119.876 60.9729C120.003 60.9058 120.115 60.8834 120.212 60.9058C120.317 60.9282 120.402 60.9804 120.469 61.0624C120.536 61.137 120.577 61.2302 120.592 61.3421C120.608 61.4465 120.592 61.5508 120.548 61.6553C120.51 61.7597 120.436 61.8454 120.324 61.9125C120.078 62.0617 119.816 62.1698 119.54 62.2369C119.265 62.304 119.003 62.3376 118.757 62.3376ZM124.326 62.3152C124.103 62.3152 123.932 62.2555 123.812 62.1363C123.692 62.0094 123.632 61.8305 123.632 61.5993V54.955C123.632 54.7239 123.692 54.5485 123.812 54.4293C123.932 54.31 124.103 54.2503 124.326 54.2503C124.55 54.2503 124.722 54.31 124.841 54.4293C124.968 54.5485 125.031 54.7239 125.031 54.955V57.8521H124.875C125.04 57.4568 125.293 57.1586 125.636 56.9572C125.987 56.7485 126.383 56.644 126.822 56.644C127.263 56.644 127.625 56.7261 127.908 56.8901C128.192 57.0542 128.404 57.304 128.546 57.6396C128.688 57.9677 128.758 58.3853 128.758 58.8924V61.5993C128.758 61.8305 128.699 62.0094 128.579 62.1363C128.46 62.2555 128.288 62.3152 128.064 62.3152C127.84 62.3152 127.666 62.2555 127.538 62.1363C127.419 62.0094 127.359 61.8305 127.359 61.5993V58.9595C127.359 58.5344 127.278 58.225 127.113 58.0311C126.956 57.8372 126.71 57.7402 126.374 57.7402C125.964 57.7402 125.636 57.8707 125.39 58.1317C125.151 58.3853 125.031 58.7246 125.031 59.1497V61.5993C125.031 62.0766 124.796 62.3152 124.326 62.3152ZM138.187 62.3152C137.963 62.3152 137.792 62.2555 137.672 62.1363C137.553 62.0094 137.493 61.8305 137.493 61.5993V57.3711C137.493 57.14 137.553 56.9647 137.672 56.8454C137.792 56.7261 137.96 56.6664 138.175 56.6664C138.392 56.6664 138.56 56.7261 138.679 56.8454C138.799 56.9647 138.858 57.14 138.858 57.3711V58.1877L138.735 57.8521C138.885 57.4792 139.116 57.1847 139.429 56.9684C139.742 56.7521 140.116 56.644 140.548 56.644C140.989 56.644 141.351 56.7485 141.634 56.9572C141.917 57.166 142.115 57.4867 142.227 57.9192H142.07C142.22 57.524 142.466 57.2145 142.809 56.9908C143.153 56.7597 143.547 56.644 143.995 56.644C144.413 56.644 144.756 56.7261 145.025 56.8901C145.301 57.0542 145.506 57.304 145.64 57.6396C145.775 57.9677 145.842 58.3853 145.842 58.8924V61.5993C145.842 61.8305 145.779 62.0094 145.651 62.1363C145.532 62.2555 145.36 62.3152 145.137 62.3152C144.913 62.3152 144.742 62.2555 144.622 62.1363C144.503 62.0094 144.443 61.8305 144.443 61.5993V58.9483C144.443 58.5307 144.373 58.225 144.23 58.0311C144.096 57.8372 143.865 57.7402 143.536 57.7402C143.171 57.7402 142.884 57.8707 142.674 58.1317C142.466 58.3853 142.361 58.7395 142.361 59.1944V61.5993C142.361 61.8305 142.302 62.0094 142.182 62.1363C142.063 62.2555 141.891 62.3152 141.667 62.3152C141.443 62.3152 141.268 62.2555 141.141 62.1363C141.022 62.0094 140.962 61.8305 140.962 61.5993V58.9483C140.962 58.5307 140.892 58.225 140.749 58.0311C140.615 57.8372 140.388 57.7402 140.067 57.7402C139.702 57.7402 139.415 57.8707 139.205 58.1317C138.996 58.3853 138.892 58.7395 138.892 59.1944V61.5993C138.892 62.0766 138.657 62.3152 138.187 62.3152ZM151.393 62.3376C150.937 62.3376 150.56 62.2555 150.262 62.0915C149.963 61.92 149.739 61.6665 149.591 61.3309C149.448 60.9953 149.378 60.5777 149.378 60.0781V57.3711C149.378 57.1325 149.437 56.9572 149.557 56.8454C149.676 56.7261 149.848 56.6664 150.072 56.6664C150.296 56.6664 150.467 56.7261 150.587 56.8454C150.713 56.9572 150.777 57.1325 150.777 57.3711V60.1004C150.777 60.4882 150.855 60.7753 151.012 60.9617C151.169 61.1481 151.418 61.2414 151.762 61.2414C152.134 61.2414 152.441 61.1146 152.68 60.8611C152.919 60.6 153.038 60.257 153.038 59.832V57.3711C153.038 57.1325 153.098 56.9572 153.217 56.8454C153.336 56.7261 153.508 56.6664 153.732 56.6664C153.956 56.6664 154.128 56.7261 154.247 56.8454C154.373 56.9572 154.437 57.1325 154.437 57.3711V61.5993C154.437 62.0766 154.209 62.3152 153.754 62.3152C153.537 62.3152 153.37 62.2555 153.25 62.1363C153.131 62.0094 153.071 61.8305 153.071 61.5993V60.7492L153.228 61.0848C153.071 61.4875 152.832 61.7969 152.512 62.0132C152.198 62.2295 151.825 62.3376 151.393 62.3376ZM160.022 62.3376C159.702 62.3376 159.362 62.304 159.004 62.2369C158.646 62.1698 158.325 62.0542 158.042 61.8902C157.922 61.8156 157.836 61.7298 157.784 61.6329C157.739 61.5285 157.721 61.4278 157.728 61.3309C157.743 61.2264 157.78 61.137 157.84 61.0624C157.907 60.9879 157.99 60.9394 158.086 60.917C158.191 60.8946 158.303 60.9132 158.422 60.9729C158.72 61.1146 159 61.2153 159.261 61.2749C159.523 61.3271 159.78 61.3532 160.034 61.3532C160.392 61.3532 160.656 61.2936 160.828 61.1743C161.007 61.0475 161.097 60.8834 161.097 60.6821C161.097 60.5106 161.037 60.3801 160.918 60.2906C160.806 60.1937 160.634 60.1228 160.403 60.0781L159.284 59.8655C158.821 59.7761 158.467 59.6083 158.221 59.3622C157.981 59.1087 157.862 58.7843 157.862 58.389C157.862 58.0311 157.959 57.7216 158.153 57.4606C158.355 57.1996 158.631 56.9982 158.982 56.8566C159.333 56.7149 159.736 56.644 160.19 56.644C160.519 56.644 160.824 56.6814 161.108 56.7559C161.399 56.823 161.679 56.9311 161.947 57.0803C162.059 57.14 162.134 57.2183 162.171 57.3152C162.216 57.4121 162.227 57.5128 162.205 57.6172C162.182 57.7141 162.138 57.8036 162.07 57.8857C162.003 57.9602 161.918 58.0087 161.813 58.0311C161.716 58.046 161.604 58.0237 161.477 57.964C161.246 57.8447 161.023 57.7589 160.806 57.7067C160.597 57.6545 160.396 57.6284 160.201 57.6284C159.836 57.6284 159.564 57.6917 159.384 57.8185C159.213 57.9453 159.127 58.1131 159.127 58.3219C159.127 58.4785 159.179 58.609 159.284 58.7134C159.389 58.8178 159.548 58.8886 159.765 58.9259L160.884 59.1385C161.369 59.228 161.735 59.392 161.981 59.6306C162.234 59.8693 162.361 60.1899 162.361 60.5926C162.361 61.137 162.149 61.5658 161.724 61.879C161.298 62.1848 160.732 62.3376 160.022 62.3376ZM166.304 62.304C166.08 62.304 165.908 62.2369 165.789 62.1027C165.67 61.9685 165.61 61.7821 165.61 61.5434V57.4382C165.61 57.1921 165.67 57.0057 165.789 56.8789C165.908 56.7447 166.08 56.6776 166.304 56.6776C166.528 56.6776 166.7 56.7447 166.819 56.8789C166.946 57.0057 167.009 57.1921 167.009 57.4382V61.5434C167.009 61.7821 166.949 61.9685 166.83 62.1027C166.711 62.2369 166.535 62.304 166.304 62.304ZM166.304 55.6373C166.042 55.6373 165.838 55.574 165.688 55.4472C165.547 55.3129 165.476 55.1302 165.476 54.8991C165.476 54.6604 165.547 54.4778 165.688 54.351C165.838 54.2241 166.042 54.1608 166.304 54.1608C166.573 54.1608 166.778 54.2241 166.919 54.351C167.061 54.4778 167.132 54.6604 167.132 54.8991C167.132 55.1302 167.061 55.3129 166.919 55.4472C166.778 55.574 166.573 55.6373 166.304 55.6373ZM173.119 62.3376C172.544 62.3376 172.044 62.222 171.619 61.9908C171.194 61.7522 170.865 61.4166 170.634 60.9841C170.402 60.5516 170.287 60.0445 170.287 59.4629C170.287 59.0228 170.35 58.6313 170.477 58.2883C170.612 57.9378 170.802 57.6433 171.048 57.4047C171.294 57.1586 171.592 56.9722 171.943 56.8454C172.293 56.7112 172.685 56.644 173.119 56.644C173.365 56.644 173.629 56.6776 173.913 56.7447C174.204 56.8118 174.476 56.9237 174.73 57.0803C174.849 57.1548 174.928 57.2443 174.965 57.3487C175.002 57.4532 175.01 57.5613 174.988 57.6731C174.965 57.7776 174.916 57.8707 174.842 57.9528C174.775 58.0273 174.688 58.0758 174.585 58.0982C174.48 58.1131 174.364 58.087 174.238 58.0199C174.073 57.923 173.905 57.8521 173.734 57.8074C173.562 57.7552 173.398 57.7291 173.242 57.7291C172.995 57.7291 172.779 57.77 172.593 57.8521C172.405 57.9266 172.246 58.0385 172.111 58.1877C171.984 58.3293 171.888 58.5083 171.82 58.7246C171.753 58.9409 171.72 59.1906 171.72 59.474C171.72 60.0259 171.85 60.4621 172.111 60.7828C172.38 61.096 172.756 61.2526 173.242 61.2526C173.398 61.2526 173.558 61.2302 173.723 61.1855C173.894 61.1407 174.066 61.0698 174.238 60.9729C174.364 60.9058 174.476 60.8834 174.574 60.9058C174.677 60.9282 174.764 60.9804 174.831 61.0624C174.898 61.137 174.939 61.2302 174.954 61.3421C174.968 61.4465 174.954 61.5508 174.909 61.6553C174.872 61.7597 174.797 61.8454 174.685 61.9125C174.439 62.0617 174.178 62.1698 173.902 62.2369C173.625 62.304 173.365 62.3376 173.119 62.3376Z" fill="#CDCDCD"/>
</svg>
