<svg width="20" height="20" viewBox="0 0 20 20" fill="none" xmlns="http://www.w3.org/2000/svg">
<path d="M5.20625 14.7937L8.2 8.2L14.7937 5.20625L11.8 11.8L5.20625 14.7937ZM9.14375 9.16875L7.71875 12.2937L10.8438 10.8687L12.2687 7.74375L9.14375 9.16875Z" fill="black"/>
<path d="M10 0C4.47688 0 0 4.47688 0 10C0 15.5231 4.47688 20 10 20C15.5231 20 20 15.5231 20 10C20 7.34784 18.9464 4.8043 17.0711 2.92893C15.1957 1.05357 12.6522 0 10 0ZM10.625 18.7188V17.5H9.375V18.7188C7.27875 18.5666 5.30729 17.6651 3.82112 16.1789C2.33495 14.6927 1.43337 12.7213 1.28125 10.625H2.5V9.375H1.28125C1.43337 7.27875 2.33495 5.30729 3.82112 3.82112C5.30729 2.33495 7.27875 1.43337 9.375 1.28125V2.5H10.625V1.28125C12.7213 1.43337 14.6927 2.33495 16.1789 3.82112C17.6651 5.30729 18.5666 7.27875 18.7188 9.375H17.5V10.625H18.7188C18.5666 12.7213 17.6651 14.6927 16.1789 16.1789C14.6927 17.6651 12.7213 18.5666 10.625 18.7188Z" fill="black"/>
</svg>
