<svg width="20" height="20" viewBox="0 0 20 20" fill="none" xmlns="http://www.w3.org/2000/svg">
<path fill-rule="evenodd" clip-rule="evenodd" d="M6.51236 15.5803C6.51236 15.3953 6.58586 15.2179 6.71669 15.087C6.84752 14.9562 7.02496 14.8827 7.20999 14.8827H12.791C12.976 14.8827 13.1535 14.9562 13.2843 15.087C13.4151 15.2179 13.4886 15.3953 13.4886 15.5803C13.4886 15.7653 13.4151 15.9428 13.2843 16.0736C13.1535 16.2044 12.976 16.2779 12.791 16.2779H7.20999C7.02496 16.2779 6.84752 16.2044 6.71669 16.0736C6.58586 15.9428 6.51236 15.7653 6.51236 15.5803Z" fill="black"/>
<path fill-rule="evenodd" clip-rule="evenodd" d="M6.93093 0H13.0701C13.2747 0 13.4319 2.94538e-08 13.5686 0.0148827C14.1755 0.079893 14.7391 0.359764 15.1577 0.803954C15.5763 1.24814 15.8223 1.82737 15.8513 2.43704C16.3969 2.60186 16.8761 2.93587 17.2195 3.39081C17.5629 3.84576 17.7528 4.39809 17.7618 4.96803C18.3209 5.13546 18.8036 5.40056 19.198 5.82658C19.8045 6.48235 19.9924 7.28881 19.9998 8.232C20.0063 9.13891 19.8454 10.2849 19.6445 11.7071L19.2352 14.6037C19.0789 15.7161 18.9515 16.6203 18.7534 17.3281C18.546 18.0695 18.2399 18.6787 17.6744 19.1475C17.1126 19.6126 16.4466 19.8126 15.6596 19.9075C14.8978 19.9986 13.9398 19.9986 12.7482 19.9986H7.25277C6.0603 19.9986 5.10222 19.9986 4.34134 19.9075C3.55349 19.8126 2.88749 19.6126 2.32567 19.1475C1.76013 18.6787 1.4541 18.0685 1.24667 17.3281C1.04855 16.6203 0.921113 15.7161 0.763914 14.6027L0.35557 11.7071C0.155584 10.2839 -0.00719597 9.13891 0.000245386 8.232C0.00768674 7.28881 0.195581 6.48235 0.802051 5.82658C1.19644 5.40056 1.67827 5.13639 2.2373 4.96803C2.24654 4.39813 2.43669 3.84592 2.78028 3.39115C3.12387 2.93637 3.60311 2.60258 4.1488 2.43797C4.17752 1.82814 4.4234 1.24869 4.84202 0.804306C5.26064 0.359924 5.8244 0.0799199 6.43143 0.0148827C6.56817 2.94538e-08 6.72537 0 6.92907 0M3.66418 4.7234C4.52552 4.65085 5.58033 4.65085 6.85187 4.65085H13.1473C14.4179 4.65085 15.4727 4.65085 16.3349 4.7234C16.271 4.4383 16.1117 4.18355 15.8834 4.00123C15.6551 3.81892 15.3714 3.71995 15.0792 3.72068H4.92084C4.29856 3.72068 3.79347 4.15786 3.66604 4.7234M13.4207 1.40269C13.9323 1.45664 14.3369 1.83801 14.4365 2.32542H5.56545C5.6148 2.08358 5.73983 1.86373 5.92244 1.69767C6.10505 1.53161 6.33577 1.42798 6.58119 1.40176C6.63328 1.39618 6.70769 1.39525 6.96907 1.39525H13.0319C13.2924 1.39525 13.3668 1.39618 13.4198 1.40176M1.8271 6.77349C2.10894 6.46933 2.53217 6.26748 3.35537 6.15772C4.19345 6.0461 5.31616 6.04517 6.90489 6.04517H13.0961C14.6848 6.04517 15.8075 6.04703 16.6456 6.15772C17.4688 6.26748 17.892 6.46933 18.1739 6.77349C18.4492 7.07114 18.599 7.47577 18.6046 8.24223C18.6101 9.03287 18.465 10.0747 18.2548 11.5685L17.8614 14.359C17.6958 15.532 17.5804 16.3431 17.4102 16.9514C17.2456 17.5374 17.053 17.849 16.7842 18.0713C16.5117 18.2983 16.1452 18.4434 15.4931 18.5215C14.8244 18.6015 13.9509 18.6025 12.7026 18.6025H7.29835C6.05007 18.6025 5.17664 18.6015 4.50784 18.5215C3.85673 18.4425 3.48931 18.2983 3.21677 18.0723C2.94795 17.849 2.75541 17.5365 2.59077 16.9514C2.42055 16.3431 2.3052 15.532 2.13963 14.359L1.74617 11.5685C1.53595 10.0756 1.39085 9.03287 1.39643 8.24223C1.40201 7.47577 1.55177 7.07021 1.8271 6.77349Z" fill="black"/>
</svg>
